<?xml version="1.0" standalone="no"?>
<!DOCTYPE svg PUBLIC "-//W3C//DTD SVG 1.1//EN" "http://www.w3.org/Graphics/SVG/1.1/DTD/svg11.dtd">
<svg xmlns="http://www.w3.org/2000/svg">
<metadata>Copyright (C) 2016 by original authors @ fontello.com</metadata>
<defs>
<font id="mystart-font" horiz-adv-x="1000" >
<font-face font-family="mystart-font" font-weight="400" font-stretch="normal" units-per-em="1000" ascent="850" descent="-150" />
<missing-glyph horiz-adv-x="1000" />
<glyph glyph-name="arrow-upload" unicode="&#xe800;" d="M500 850l-500-500h375v-500h250v500h375l-500 500z" horiz-adv-x="1000" />

<glyph glyph-name="logo-one" unicode="&#xe801;" d="M2295 465c-47 0-83-14-109-43-26-29-38-69-38-121 0-52 12-93 38-122 25-29 62-43 109-43 46 0 82 15 108 44 26 29 38 69 38 121 0 51-12 91-38 120-26 29-62 44-108 44z m80-263c-18-22-45-33-80-33-35 0-62 11-81 33-18 22-27 55-27 99 0 42 9 75 27 97 19 22 46 34 81 34 35 0 62-11 80-34 18-22 27-54 27-97 0-44-9-77-27-99z m288 161c15-14 22-36 22-66v-157h-36v155c0 20-5 34-14 44-8 10-22 14-41 14-25 0-44-6-55-20-12-13-18-36-18-67v-126h-36v240h29l6-33h2c7 12 18 21 31 28 14 6 29 9 45 9 29 0 51-7 65-21z m166 21c-32 0-58-11-77-34-19-23-28-53-28-92 0-38 10-68 31-90 20-21 48-32 83-32 17 0 30 1 42 4 11 2 23 6 36 11v33c-25-11-51-16-76-16-25 0-44 7-57 22-14 14-21 35-22 64h165v22c0 33-8 59-26 79-17 19-41 29-71 29z m-67-101c2 22 9 40 21 52 11 13 26 19 46 19 18 0 33-6 43-18 10-13 16-30 16-53h-126z m-2075 254l142 242c12-6 24-14 36-21l-166-231c-4 3-8 7-12 10z m30-30l189 221c10-9 21-18 31-27l-212-207c-2 5-5 9-8 13z m-67 48l90 264c14-4 27-9 39-15l-113-255c-5 2-10 4-16 6z m-39 9c-1 0-2 1-3 1l42 277c13-2 27-5 40-8l-66-272c-1 0-2 0-2 0-5 1-9 2-11 2l0 0z m-38 0c-5-1-10-2-16-3l7 289c14 0 28-1 42-2l-33-284z m425 69l-256-181c-1 4-3 9-4 13l234 200c9-10 18-21 26-32z m-244-203l275 160c8-12 15-24 21-37l-279-129h-13c-2 2-3 4-4 6z m-246 120l-29 295c14 2 28 3 42 4l1-296c0 0 0 0 0 0-5-1-10-2-14-3z m483-109l-152-42c-1 7-5 12-10 17l175 67c0-1-1-2-1-3-6-13-9-25-12-39z m-88-90l-63-2v18l63 8v-24z m132-237c12-1 28-2 46-2l-6-23-42 12c1 4 1 8 2 13z m-88-124l40-32-27-36-59 57c15 2 30 4 46 11z m-181 121l-21 21c1 3 2 7 2 11v3c0 1 1 2 2 2l8-6c8-8 16-15 25-20l13-11-29 0z m248-60l35-16-9-21c-3-6-7-13-11-19l-40 23c10 10 18 21 25 33z m22 258c12-11 29-22 49-30l-49 3v27z m-133-16l-63 4v19l63 1v-24z m-63-28l63-6c0-8-3-15-9-21-1-1-2-2-3-3l-46 8c-3 5-5 10-5 17v5z m272-29c-12 0-21 3-29 7l29-3c0-2 0-3 0-4z m-391-126l6-8c0 0-1 0-1-1-4-3-6-8-8-13l-12 17c2 1 4 3 6 4h1c3 0 5 1 8 1z m114-132l83-96-34-30-88 126c12 0 26 0 39 0z m-823 195l215 55v-32l-202-72c0 1 0 2 0 2l-10 35c-1 4-2 8-3 12z m287 371l-154 124c9 11 19 20 30 30l149-143c-9-3-17-6-25-11z m-299-273l227 14v-25l-223-38c-2 16-3 33-4 49z m474 277l-93 274c13 4 26 8 40 11l70-287c-1 0-3 0-4 0-4 0-8 1-13 2z m-206-28c-5-6-11-12-15-19l-164 95c8 12 16 23 24 34l155-110z m91 44l-145 168c10 8 22 16 33 24l138-191c-5 0-11 0-17 0-2 0-3 0-5-1l0 0c-1 0-2 0-4 0z m0-1l0 0c1 0 1 1 2 1-1 0-1-1-2-1z m-355-199l223-17v-26l-227 3c1 14 3 27 4 40z m417 197l-132 220c12 7 24 13 37 19l118-245c-6 2-12 3-18 5 0 0-1 0-2 0-1 0-2 0-3 1z m-398-108l204-49v-25l-215 33c3 14 7 28 11 41z m38 93l175-81c-2-8-4-16-6-24l-188 66c6 14 12 26 19 39z m1925-64h34v-5h-14v-39h-6v39h-14v5z m73 0h8v-44h-5v37l-13-37h-5l-13 37v-37h-5v44h8l11-31c1-3 1-5 2-6 0 1 1 3 2 7l10 30z m-1403-341v257c0 19-7 36-20 49-14 14-31 21-50 21-26 0-46-11-60-36v-291h-64v257c0 19-7 35-20 49-28 28-73 27-100 0-14-13-21-30-21-49v-257h-63v257c0 37 13 69 39 94 26 26 58 39 95 39 37 0 69-13 95-39l2-2 2 2c26 26 58 39 95 39 37 0 69-13 95-39 25-25 38-57 38-94v-257h-63z m224-134l-119 0 0 60 119 0c19 0 35 7 48 20 13 13 19 29 19 47v17l-4-3c-19-11-41-16-63-16-35 0-66 12-90 37-25 24-37 54-37 90v127h60v-127c0-19 6-35 19-48 26-26 69-26 96 0 13 13 19 29 19 48v127h61v-252c0-36-13-66-37-90-25-25-55-37-91-37z m568 129l-30 1c-36 0-67 12-92 37-26 25-38 56-38 92v239h65v-116h65v-56h-65v-67c0-18 7-33 19-45 9-9 20-15 32-17 8-27 23-50 44-68z m-203 181c13-18 20-42 21-73 0-22-3-41-14-57-28-41-72-56-133-56-25 0-52 5-81 18l1 73c86-48 157-30 157 22v1c0 42-77 48-110 66-39 23-59 55-59 97v3c0 20 5 38 16 55 10 17 24 30 42 40 34 18 109 24 169 0v-70c-60 37-155 35-155-22 0-22 16-38 49-47 5-2 17-6 34-11 29-9 50-22 63-39z m509 34c25 25 56 38 92 38v-66c-18 0-33-6-46-18-12-13-19-28-19-46v-122h-65v122c0 36 12 67 38 92z m250-149l10 0 0-66-10 1c-36 0-67 12-93 37-25 25-37 56-37 92v239h65v-116h65v-56h-65v-67c0-18 7-33 19-45 13-13 28-19 46-19z m-449 189c-1 0-3 0-5 0-72 0-131-59-131-131 0-73 59-132 131-132 26 0 50 7 70 20v-11h66v124c0 37-13 67-38 92-26 25-56 38-93 38z m43-178c-13-13-28-20-47-20-13 0-25 4-37 12-19 13-28 31-28 54 0 14 4 26 12 38 12 19 30 28 53 28 15 0 27-4 38-12 19-13 28-31 28-54 0-18-6-34-19-46z" horiz-adv-x="2932" />

<glyph glyph-name="feed-tumblr" unicode="&#xe802;" d="M607 65v-167c-42-20-81-28-115-36-34-8-71-12-110-12-45 0-172 1-224 134-10 24-14 59-14 105v404h-144l1 110c47 0 190 28 190 247h131v-250h250v-107h-249l-1-310c0-58 3-95 9-112 10-26 45-59 109-59 50 0 117 15 167 53z" horiz-adv-x="608" />

<glyph glyph-name="menu-contact" unicode="&#xe803;" d="M999 714c1 8 0 17-4 25-11 45-43 69-99 69h-750c-50 0-104-18-130-55-2-2-4-3-6-5-8-10-11-22-9-34 0-4-1-6-1-10v-666c0-70 77-146 146-146h750c69 0 104 76 104 146v666c0 4-1 6-1 10z m-853 11h729 21c4 0 7 0 10 0l-406-449-402 445c13 5 34 4 48 4z m750-750h-750c-23 0-63 40-63 63v576l390-424c8-7 17-11 27-11 10 0 19 4 27 11l390 425v-577c0-23 2-63-21-63z" horiz-adv-x="1000" />

<glyph glyph-name="bullet" unicode="&#xe804;" d="M500 850c276 0 500-224 500-500s-224-500-500-500-500 224-500 500 224 500 500 500z" horiz-adv-x="1000" />

<glyph glyph-name="calendar" unicode="&#xe805;" d="M531 225h-62c-19 0-31-12-31-31v-63c0-18 12-31 31-31h62c19 0 32 13 32 31v63c0 19-13 31-32 31z m0 250h-62c-19 0-31-12-31-31v-63c0-18 12-31 31-31h62c19 0 32 13 32 31v63c0 19-13 31-32 31z m-250 0h-62c-19 0-31-12-31-31v-63c0-18 12-31 31-31h62c19 0 32 13 32 31v63c0 19-13 31-32 31z m0-250h-62c-19 0-31-12-31-31v-63c0-18 12-31 31-31h62c19 0 32 13 32 31v63c0 19-13 31-32 31z m438 125h62c19 0 32 13 32 31v63c0 19-13 31-32 31h-62c-19 0-31-12-31-31v-63c0-18 12-31 31-31z m219 406h-250v63c0 19-13 31-32 31-18 0-31-12-31-31v-63h-250v63c0 19-12 31-31 31-19 0-31-12-31-31v-63h-250c-38 0-63-25-63-62v-782c0-37 25-62 63-62h875c37 0 62 25 62 62v782c0 37-25 62-62 62z m0-844h-875v782h250v-31c0-19 12-32 31-32 19 0 31 13 31 32v31h250v-31c0-19 13-32 31-32 19 0 32 13 32 32v31h250v-782z m-219 188h62c19 0 32 13 32 31v63c0 19-13 31-32 31h-62c-19 0-31-12-31-31v-63c0-18 12-31 31-31z" horiz-adv-x="1000" />

<glyph glyph-name="checkbox-off" unicode="&#xe806;" d="M786 850h-572c-121 0-214-93-214-214v-572c0-114 93-214 214-214h572c121 0 214 100 214 214v572c0 121-93 214-214 214z m143-786c0-78-65-143-143-143h-572c-78 0-143 65-143 143v572c0 78 65 143 143 143h572c78 0 143-65 143-143v-572z" horiz-adv-x="1000" />

<glyph glyph-name="checkbox-on" unicode="&#xe807;" d="M786 850h-572c-121 0-214-93-214-214v-572c0-114 93-214 214-214h572c121 0 214 100 214 214v572c0 121-93 214-214 214z m143-786c0-78-65-143-143-143h-572c-78 0-143 65-143 143v572c0 78 65 143 143 143h572c78 0 143-65 143-143v-572z m-100 522c14-15 14-43 0-57l-400-408c0 0 0-7-8-7-14-14-42-14-57 0l-200 200c-14 15-14 43 0 57 15 15 43 15 57 0l172-171 378 386c15 14 43 14 58 0z" horiz-adv-x="1000" />

<glyph glyph-name="close" unicode="&#xe808;" d="M550 350l450-450-50-50-450 450-450-450-50 50 450 450-450 450 50 50 450-450 450 450 50-50-450-450z" horiz-adv-x="1000" />

<glyph glyph-name="cog" unicode="&#xe809;" d="M500 538c-106 0-187-82-187-188 0-106 87-187 187-187 106 0 188 81 188 187 0 106-82 188-188 188z m0-313c-69 0-125 56-125 125 0 69 56 125 125 125s125-56 125-125c0-69-56-125-125-125z m438 219l-82 19c-6 18-12 37-25 56l44 75c19 25 25 62 0 87l-44 44c-25 25-62 19-87 0l-69-44c-19 13-37 19-56 25l-19 82c-6 31-31 62-69 62h-62c-38 0-56-31-63-62l-18-82c-19-6-44-12-63-25l-69 44c-25 19-68 25-93 0l-44-44c-25-25-19-62 0-87l44-75c-7-19-13-38-19-56l-81-19c-32-6-63-31-63-63v-62c0-38 31-56 63-63l81-18c6-19 12-32 19-50l-44-75c-19-25-25-63 0-88l44-50c25-25 62-19 87 0l75 44c19-13 38-19 63-25l18-82c7-31 25-62 63-62h62c38 0 63 31 69 62l19 82c19 6 37 12 56 25l69-44c25-19 69-19 87 0l44 44c25 25 19 62 0 87l-44 75c7 19 19 38 25 57l82 18c31 7 62 25 62 63v62c0 32-31 57-62 63z m0-125c0 0-7-6-13-6l-119-25-12-32c-6-12-13-31-19-43l-19-32 63-100c6-6 6-12 6-12l-44-44c-6 0-6 0-12 6l-100 69-31-19c-13-6-32-12-50-18l-25-19-25-119c0-6-7-13-7-13h-56c0 0-6 7-6 13l-31 119-32 12c-18 7-31 13-50 19l-31 19-100-69c-6 0-6-6-12-6l-44 37c0 7 0 7 6 13l63 106-13 31c-12 19-19 32-19 44l-12 38-119 25c-6 6-12 6-12 6v62c0 0 0 0 0 0 0 0 6 7 12 7l119 25 12 37c0 6 7 25 13 38l12 31-62 106c0 6 0 13 0 13l44 43c6 0 6 0 12-6l106-69 32 19c18 6 31 19 50 19l25 12 31 113c0 12 0 19 6 19h56c0 0 7-7 7-13l25-119 31-12c19-6 31-13 50-19l31-19 100 63c6 0 6 6 13 6l43-37c0-7 0-7-6-13l-62-100 18-31c7-19 13-31 19-50l13-38 112-25c6 0 13-6 13-6l0-56z" horiz-adv-x="1000" />

<glyph glyph-name="edit" unicode="&#xe80a;" d="M781-88h-718v782h437l63 62 0 0h-500c-38 0-63-25-63-62v-782c0-37 25-62 63-62h718c38 0 63 25 63 62v457l-63-63v-394z m169 894c-25 32-56 44-94 44-50 0-87-31-100-44-12-12-431-425-431-425 0-6 0-12 0-12-12-44-69-225-69-231 0-13 0-19 7-25 6-7 12-7 18-7 0 0 7 0 7 0 0 0 193 63 225 69 6 0 6 6 12 6 19 19 400 394 431 425 32 38 44 69 44 107 0 31-19 68-50 93z m-44-150c-18-18-156-150-406-400l-12-18c-32-7-100-32-150-50 18 56 37 125 43 156 57 56 407 406 425 419 0 0 25 25 57 25 18 0 31-7 50-25 12-19 25-38 25-50 0-19-13-38-32-57z" horiz-adv-x="1000" />

<glyph glyph-name="feed-facebook" unicode="&#xe80b;" d="M313-150h-213v500h-100v175h100v100c0 144 63 225 225 225h138v-175h-82c-68 0-68-19-68-69l0-87h156l-19-169h-137v-500z" horiz-adv-x="469" />

<glyph glyph-name="feed-googleplus" unicode="&#xe80c;" d="M1000 588v-63h-187v-187h-63v187h-187v63h187v187h63v-187h187z m-519 143h-81c50-18 81-81 81-150 0-56-31-106-75-137s-50-50-50-75c0-25 50-69 69-81 69-50 94-94 100-175 0-94-94-188-256-188-144 0-269 62-269 156s113 188 256 188c13 0 32 0 44 0-19 25-37 44-37 75 0 19 6 31 12 50-6 0-19 0-25 0-119 0-200 81-200 187s106 194 225 194c69 0 263 0 263 0l-57-44z m-137-500c-19 7-38 13-63 13-100 0-187-63-187-138s75-137 175-137c137 0 187 62 187 137 0 7-6 19-6 25-12 44-50 69-106 100z m44 344c-13 88-75 163-144 163s-113-69-100-157c12-87 75-162 144-162 68-6 112 69 100 156z" horiz-adv-x="1000" />

<glyph glyph-name="feed-instagram" unicode="&#xe80d;" d="M825 850h-650c-94 0-175-81-175-175v-650c0-94 81-175 175-175h650c100 0 175 81 175 175v650c0 94-81 175-175 175z m-650-62h650v0c63 0 113-50 113-113v-137h-250c-50 50-119 81-188 81s-144-38-187-81h-250v137c0 63 50 113 112 113z m325-238c113 0 206-94 206-206s-93-206-206-206c-112 0-206 93-206 206s94 206 206 206z m325-638h-650c-62 0-112 50-112 113v450h200c-19-44-32-87-32-131 0-150 119-269 269-269 150 0 269 119 269 269 0 50-13 94-38 131h207v-444c0-69-50-119-113-119z m-37 682h62c25 0 44 19 44 44v62c0 25-19 44-44 44h-62c-25 0-44-19-44-44v-62c0-25 19-44 44-44z" horiz-adv-x="1000" />

<glyph glyph-name="feed-rss" unicode="&#xe80e;" d="M881-150c-6 231-106 450-268 613s-382 256-613 268v119c263-12 506-119 694-306 187-188 294-431 306-694h-119z m-393 0c-19 263-225 469-488 488v118c325-18 588-281 606-606h-118z m-394 0c-50 0-94 44-94 94 0 50 44 94 94 94s94-44 94-94c0-50-44-94-94-94z" horiz-adv-x="1000" />

<glyph glyph-name="feed-twitter" unicode="&#xe80f;" d="M975 663c6 25 0 50-19 68-12 7-25 13-37 13-13 0-19 0-31-6-19-13-44-19-69-25-44 31-94 50-150 50-125 0-225-88-238-207-100 19-193 69-262 144-6 19-25 25-44 25 0 0-6 0-6 0-19 0-38-12-50-31-19-38-31-75-31-119 0-31 6-56 12-81-6-13-12-25-12-44v0c0-62 25-119 62-162 0-13 0-25 0-32 13-43 38-81 69-106-25-6-44-6-69-6-12 0-25 0-37 0 0 0-7 0-7 0-25 0-50-19-56-44-13-25 0-56 25-75 94-56 200-88 306-88 357 0 569 276 575 551 32 25 57 50 75 81 13 19 19 31 19 44 0 18-12 43-25 50z m-125-138c0-6 0-12 0-25 0-231-181-494-512-494-100 0-194 32-275 82 12 0 31 0 43 0 82 0 163 25 225 75-81 0-143 50-168 118 12 0 25-6 31-6 19 0 31 0 50 6-81 13-144 82-144 169 0 0 0 0 0 0 25-12 50-19 81-19-50 32-81 82-81 144 0 31 6 63 25 88 88-107 219-175 369-182 0 13-6 25-6 38 0 94 81 175 181 175 50 0 100-19 131-56 44 6 81 25 113 43-13-43-44-75-82-93 38 0 75 12 107 25-25-32-57-63-88-88z" horiz-adv-x="1000" />

<glyph glyph-name="feed-youtube" unicode="&#xe810;" d="M919 663c-25 18-100 50-419 50-337 0-387-32-406-38-88-56-94-287-94-331 0-63 13-263 94-313 19-12 69-37 406-37 319 0 394 25 419 44 75 50 81 231 81 312 0 56-6 263-81 313z m-38-575c-6-7-62-32-381-32-306 0-362 25-369 32-31 18-62 112-62 256 0 144 37 256 62 269 7 6 63 31 369 31 319 0 375-25 381-31 25-19 57-119 57-269 0-150-32-238-57-256z m-437 418c-6 7-13 7-25 0-6 0-13-12-13-18v-282c0-6 7-18 13-25 6 0 6-6 12-6 7 0 7 0 13 6l225 138c12 12 19 19 19 31 0 6-7 19-13 19l-231 137z" horiz-adv-x="1000" />

<glyph glyph-name="info-circ" unicode="&#xe811;" d="M500-150c-276 0-500 224-500 500 0 276 224 500 500 500 276 0 500-224 500-500 0-276-224-500-500-500l0 0z m0 906c-224 0-406-182-406-406 0-224 182-406 406-406 224 0 406 182 406 406 0 224-182 406-406 406l0 0z m0-656c-35 0-63 28-63 63v187c0 35 28 63 63 63 35 0 63-28 63-63v-187c0-35-28-63-63-63l0 0z m0 375c-35 0-63 28-63 63 0 34 28 62 63 62 35 0 63-28 63-62 0-35-28-63-63-63l0 0z" horiz-adv-x="1000" />

<glyph glyph-name="minus-circ" unicode="&#xe812;" d="M500-150c-276 0-500 224-500 500s224 500 500 500 500-224 500-500-224-500-500-500l0 0z m0 906c-224 0-406-182-406-406 0-224 182-406 406-406s406 182 406 406c0 224-182 406-406 406l0 0z m156-468h-312c-35 0-63 28-63 62 0 35 28 63 63 63h312c35 0 63-28 63-63 0-34-28-62-63-62l0 0z" horiz-adv-x="1000" />

<glyph glyph-name="newtab-apps" unicode="&#xe813;" d="M381 100h250v-250h-250v250z m0 119h250v250h-250v-250z m-381-369h250v250h-250v-250z m0 369h250v250h-250v-250z m0 381h250v250h-250v-250z m750 250v-250h250v250h-250z m-369-250h250v250h-250v-250z m369-381h250v250h-250v-250z m0-369h250v250h-250v-250z" horiz-adv-x="1000" />

<glyph glyph-name="newtab-bookmarks" unicode="&#xe814;" d="M1000 463h-381l-119 362-119-362h-381l306-225-118-363 312 225 306-225-118 363 312 225z m-462-313l-38 25-37-25-150-112 56 181 12 44-37 25-150 112h187 44l13 44 62 181 56-181 13-44h44 187l-144-112-37-25 12-44 57-181-150 112z" horiz-adv-x="1000" />

<glyph glyph-name="newtab-clock" unicode="&#xe815;" d="M531 363v300c0 18-12 31-31 31-19 0-31-13-31-31v-313c0-6 6-19 12-25 0 0 0 0 0 0l157-156c12-13 31-13 43 0 13 12 13 31 0 44l-150 150z m-31 487c-275 0-500-225-500-500s225-500 500-500c275 0 500 225 500 500s-225 500-500 500z m0-938c-244 0-437 201-437 438 0 244 193 438 437 438s438-194 438-438c0-244-194-438-438-438z" horiz-adv-x="1000" />

<glyph glyph-name="newtab-livefeeds" unicode="&#xe816;" d="M544-88c-19 0-31 13-31 32 0 275-207 481-482 481-18 0-31 19-31 31 0 19 13 32 31 32 313 0 544-232 544-544 0-19-12-32-31-32l0 0z m300 7c-19 0-31 12-31 31 0 425-350 781-782 781-12 0-31 13-31 25s19 32 31 32c469 0 844-375 844-844 0-13-12-25-31-25l0 0z m-738 206c-56 0-106-50-106-106s50-107 106-107 107 50 107 107c0 62-44 106-107 106l0 0z" horiz-adv-x="875" />

<glyph glyph-name="newtab-logo" unicode="&#xe817;" d="M744 769h-613c-68 0-131-63-131-138v-487c0-19 19-38 38-38s37 19 37 38v487c0 32 25 63 56 57h619c25 0 56-19 56-57v-568c0-25-12-44-37-57l-331 325h131c19 0 37 19 37 38 7 25-12 44-31 44h-225c-25 0-44-19-44-38v-219c0-18 19-37 38-37 19 0 37 19 37 37v119l332-325c6-6 12-13 25-13 75 0 131 63 125 132v562c12 75-50 138-119 138z" horiz-adv-x="875" />

<glyph glyph-name="newtab-mostvisited" unicode="&#xe818;" d="M694 350c0-106-81-187-188-187-106 0-187 81-187 187s81 188 187 188c107 0 188-82 188-188z m306 13c0 0 0 0 0 0 0 0 0-7 0-7s0-6-12-6v-6-6c-88-207-288-325-494-325-206 0-400 118-494 325v6 6c0 0 0 6 0 13v6c94 206 294 325 500 325 213 0 406-119 500-331z m-62-13c-88 188-263 281-438 281s-350-93-437-281c87-187 262-281 437-281s350 94 438 281z" horiz-adv-x="1000" />

<glyph glyph-name="newtab-music" unicode="&#xe819;" d="M669 563c-81 118-75 37-156 275l-88 12-100-719c-219 125-356-6-319-162 19-88 157-169 294-88 63 38 88 100 94 144l69 531c250-218 168-350 118-500 107 44 269 238 88 507z" horiz-adv-x="750" />

<glyph glyph-name="newtab-recentlyclosed" unicode="&#xe81a;" d="M988 506l-7 7c-12 6-25 0-31-7l-50-81c-31 219-225 388-450 388-244-7-450-213-450-463s206-456 456-456c144 0 275 68 363 181 12 13 6 31-6 44-13 12-32 6-44-6-75-100-188-157-313-157-218 0-393 175-393 394 0 219 175 394 393 394 200 0 363-150 388-338l-75 57c-13 6-25 6-31-7l-7-6c-6-12-6-25 7-31l131-94 0 0 6-6c6-6 13-6 19-6 6 0 12 6 12 12l7 13c0 0 0 0 0 0l81 137c6 6 6 25-6 31z m-538 13c-19 0-31-13-31-31v-163c0-6 6-19 12-25 0 0 0 0 0 0l107-106c12-13 31-13 43 0 13 12 13 31 0 44l-100 100v150c0 18-18 31-31 31z" horiz-adv-x="1000" />

<glyph glyph-name="newtab-search" unicode="&#xe81b;" d="M992-140c-13-13-34-13-47 0l-251 252c-73-64-170-103-275-103-233 0-421 188-421 420 0 233 188 421 421 421 232 0 421-188 421-421 0-102-37-196-98-269l250-253c13-13 13-34 0-47l0 0z m-219 569c0 196-159 354-354 354-196 0-354-158-354-354 0-195 158-354 354-354 195 0 354 159 354 354l0 0z" horiz-adv-x="1000" />

<glyph glyph-name="newtab-settings" unicode="&#xe81c;" d="M957 300h-913c-25 0-44 22-44 50 0 28 19 50 44 50h913c24 0 43-22 43-50 0-28-19-50-43-50l0 0z m0-300h-913c-25 0-44 22-44 50 0 28 19 50 44 50h913c24 0 43-22 43-50 0-28-19-50-43-50l0 0z m0 600h-913c-25 0-44 22-44 50 0 28 19 50 44 50h913c24 0 43-22 43-50 0-28-19-50-43-50l0 0z" horiz-adv-x="1000" />

<glyph glyph-name="newtab-wallpapers" unicode="&#xe81d;" d="M819 719h-763c-31 0-56-25-56-56v-625c0-32 25-57 56-57h769c31 0 56 25 56 57v625c-6 31-31 56-62 56z m0-56v-500l-163 162c-12 13-25 13-37 0l-100-81-225 219c-6 6-13 12-19 12-6 0-12 0-19-6l-200-194v388h763z m-763-625v162l219 213 225-232c6-12 25-12 38 0l100 88 181-188c0 0 0 0 0 0v-43h-763z" horiz-adv-x="875" />

<glyph glyph-name="newtab-weather" unicode="&#xe81e;" d="M361 626c-7 7-7 18 0 25 7 7 18 7 25 0l50-50c7-7 7-18 0-25-3-3-8-5-12-5s-9 2-13 5l-50 50z m276 36c9 0 17 8 17 18v71c0 9-8 17-17 17s-18-8-18-17v-71c0-10 8-18 18-18z m345-235h-70c-10 0-18-8-18-18s8-18 18-18h70c10 0 18 8 18 18s-8 18-18 18z m-100-200c-7 7-19 7-25 0-7-7-7-18 0-25l50-50c3-4 7-5 12-5s9 1 13 5c6 7 6 18 0 25l-50 50z m-112 26c27-34 43-76 43-122 0-108-89-199-194-199h-425c-105 0-194 91-194 199 0 109 89 200 194 200 20 0 40-3 59-9 20 86 97 149 187 150 28 83 106 140 194 140 114 0 206-92 206-205 0-59-26-115-70-154z m-33-25l-8 11-11 10c-18 17-50 38-91 40l-30 2-8 28c-16 56-63 99-120 109l-14 3-15 0c-70-1-130-50-146-119l-10-44-44 14c-15 5-30 7-46 7-82 0-152-72-152-158s70-158 152-158h425c82 0 152 73 152 158 0 35-11 68-34 97z m67 179c0 94-76 170-170 170-70 0-132-44-158-108 73-13 133-67 153-138 45-3 85-22 117-52 37 33 58 79 58 128z m107 219c7 7 7 18 0 25-7 7-18 7-25 0l-50-50c-7-7-7-18 0-25 4-3 8-5 13-5s9 2 12 5l50 50z" horiz-adv-x="1000" />

<glyph glyph-name="ok-circ" unicode="&#xe81f;" d="M744 533c12-12 12-32 0-44l-313-316c-1 0-1-1-2-2-12-12-32-12-44 0l-155 155c-12 12-12 32 0 44 12 12 32 12 44 0l132-132 294 295c12 12 32 12 44 0z m256-183c0-276-224-500-500-500s-500 224-500 500 224 500 500 500 500-224 500-500z m-62 0c0 241-197 438-438 438-241 0-437-197-437-438 0-241 196-438 437-438 241 0 438 197 438 438z" horiz-adv-x="1000" />

<glyph glyph-name="pencil" unicode="&#xe820;" d="M944 800c-38 31-75 50-113 50-62 0-106-37-118-50-19-19-619-619-619-619-6-6-6-6-6-12-19-56-88-275-88-275-6-13 0-25 6-32 7-6 19-12 25-12 7 0 7 0 13 0 0 0 231 75 269 87 6 0 12 7 12 7 25 25 581 575 619 612 37 44 56 88 56 125 0 44-19 82-56 119z m-675-681c-31 31-69 50-94 62 113 107 400 394 525 519 19-6 56-19 94-56 37-38 50-81 50-94-125-119-406-400-519-512-12 25-25 50-56 81z m-131 6c18-6 50-19 87-56 25-31 44-56 50-82-44-12-137-43-200-68 19 68 50 156 63 206z m762 481c0 0-6-6 0 0-19 19-31 50-62 82-32 31-63 50-88 62 0 0 6 6 6 6 0 0 32 32 75 32 25 0 44-13 69-32 25-25 38-50 38-75 0-25-13-50-38-75z" horiz-adv-x="1000" />

<glyph glyph-name="plus-circ" unicode="&#xe821;" d="M656 413h-93v93c0 38-25 63-63 63-37 0-62-25-62-63v-93h-94c-38 0-63-25-63-63 0-37 25-62 63-62h94v-94c0-38 25-63 62-63s63 25 63 63v94h93c38 0 63 25 63 62 0 38-25 63-63 63z m-156 437c-275 0-500-225-500-500 0-275 225-500 500-500 275 0 500 225 500 500 0 275-225 500-500 500z m0-906c-225 0-406 181-406 406 0 225 181 406 406 406 225 0 406-181 406-406 0-225-181-406-406-406z" horiz-adv-x="1000" />

<glyph glyph-name="radio-light-off" unicode="&#xe822;" d="M500 788c241 0 438-197 438-438s-197-438-438-438c-241 0-437 197-437 438s196 438 437 438m0 62c-276 0-500-224-500-500 0-276 224-500 500-500 276 0 500 224 500 500 0 276-224 500-500 500l0 0z" horiz-adv-x="1000" />

<glyph glyph-name="radio-light-on" unicode="&#xe823;" d="M500 788c241 0 438-197 438-438s-197-438-438-438c-241 0-437 197-437 438s196 438 437 438m0 62c-276 0-500-224-500-500s224-500 500-500c276 0 500 224 500 500s-224 500-500 500l0 0z m0-344c86 0 157-70 157-156s-71-156-157-156-156 70-156 156 70 156 156 156z" horiz-adv-x="1000" />

<glyph glyph-name="radio-off" unicode="&#xe824;" d="M500 750c221 0 400-179 400-400s-179-400-400-400-400 179-400 400 179 400 400 400m0 100c-276 0-500-224-500-500s224-500 500-500 500 224 500 500-224 500-500 500l0 0z" horiz-adv-x="1000" />

<glyph glyph-name="radio-on" unicode="&#xe825;" d="M750 350c0-137-112-250-250-250s-250 113-250 250 113 250 250 250 250-112 250-250z m250 0c0-275-225-500-500-500s-500 225-500 500 225 500 500 500 500-225 500-500z m-100 0c0 219-181 400-400 400s-400-181-400-400 181-400 400-400 400 181 400 400z" horiz-adv-x="1000" />

<glyph glyph-name="toolbox-bookmark" unicode="&#xe826;" d="M0 850v-981l313 306 312-306v981h-625z m563-831l-250 244-250-244v769h500v-769z" horiz-adv-x="625" />

<glyph glyph-name="toolbox-printer" unicode="&#xe827;" d="M250 788h500v-125h-500v125z m688-188h-875c-35 0-63-28-63-62v-313c0-34 28-62 63-62h187v-251h500v251h188c34 0 62 28 62 62v313c0 34-28 62-62 62z m-250-625h-375v313h375v-313z m264 531c0-25-21-45-46-45s-45 20-45 45c0 25 20 46 45 46s46-21 46-46z" horiz-adv-x="1000" />

<glyph glyph-name="trashcan" unicode="&#xe828;" d="M356 6h-75v525h75v-525z m457 657c0-19-13-32-32-32h-37l-75-719c-6-37-38-62-75-62h-388c-31 0-62 31-62 62l-69 719h-44c-18 0-31 13-31 32s13 31 31 31h219v87c0 38 31 69 75 69h163c43 0 75-31 75-69v-87h218c19 0 32-13 32-31z m-500 31h187v87c0 7-6 7-6 7h-169c-6 0-12-7-12-7v-87z m375-63h-550l68-712c0-7 7-7 7-7l400 7 75 712z m-157-100h-75v-531h75v531z" horiz-adv-x="813" />

<glyph glyph-name="x-circ" unicode="&#xe829;" d="M677 482l-133-132 133-132c12-12 12-32 0-45-12-12-32-12-45 0l-132 133-132-133c-12-12-32-12-45 0-12 13-12 33 0 45l133 132-133 132c-12 13-12 33 0 45 12 12 32 12 44 0l133-133 132 133c12 12 32 12 44 0 13-12 13-32 1-45z m323-132c0-276-224-500-500-500-276 0-500 224-500 500 0 276 224 500 500 500 276 0 500-224 500-500z m-62 0c0 241-197 438-438 438s-437-197-437-438c0-241 196-438 437-438s438 197 438 438z" horiz-adv-x="1000" />

<glyph glyph-name="refresh-spin" unicode="&#xe82a;" d="M494 850c-266 0-483-210-494-472-1-19 13-20 13-20l84 0c16 0 19 10 19 18 10 199 176 358 378 358 107 0 205-45 273-118l-58-57c-11-12-11-27 5-31l247-50c21-5 46 11 37 44l-58 227c-2 9-16 22-29 13l-65-60c-89 91-214 148-352 148z m409-508c-16 0-19-10-19-18-10-199-176-358-377-358-108 0-205 45-274 118l59 57c10 12 10 27-5 31l-248 50c-21 5-46-11-37-44l58-227c2-9 16-22 30-13l64 60c89-91 214-148 353-148 265 0 482 210 493 473 1 18-13 19-13 19l-84 0z" horiz-adv-x="1000" />

<glyph glyph-name="browser-firefox" unicode="&#xe82b;" d="M504-137c-216 0-387 126-466 306-87 200-17 521 139 663l-6-156c8 9 68 12 78-1 32 62 136 109 220 110-32-26-106-124-99-174 40-13 103-13 136-15 10-6 8-40-12-68-27-36-97-49-97-49l8-106-77 38c-26-64 35-120 97-110 69 12 94 57 142 54 49-2 68-29 61-54-7-30-59-25-59-25-44-70-103-100-198-92 144-119 338-11 387 86 50 97 7 242-43 283 59-25 99-51 120-107 11 124-46 266-149 349 193-56 311-205 314-444 3-239-211-488-496-488z" horiz-adv-x="1000" />

<glyph glyph-name="browser-chrome" unicode="&#xe82c;" d="M498 850c-147-1-291-67-387-186l154-237c39 111 150 182 267 170l414-22c-42 84-108 157-196 208-79 46-166 67-252 67z m-416-226c-52-79-82-173-82-274 0-250 183-457 423-494l128 252c-116-22-233 39-281 146l-188 370z m885-94l-282-15c76-89 82-221 13-317l-226-347c94-6 190 15 278 66 216 125 304 387 217 613z m-467-11c-93 0-169-76-169-169s76-169 169-169 169 76 169 169-76 169-169 169z" horiz-adv-x="1000" />

<glyph glyph-name="browser-opera" unicode="&#xe82d;" d="M426-150c-568 0-568 1000 0 1000s567-1000 0-1000z m0 92c237 0 237 816 0 816s-238-816 0-816z" horiz-adv-x="851" />

<glyph glyph-name="browser-ie" unicode="&#xe82e;" d="M844 850c-81-1-181-46-281-106-239 35-498-103-509-386 60 93 224 257 367 301l0-13c-179-90-571-612-360-773 90-69 310 37 344 76 29-5 59-8 89-8 201 0 371 124 424 292l-301 0c-13-56-56-92-121-92-102 0-126 68-126 151l561 0c29 204-114 385-306 439 174 115 363 161 299-104l20 0c35 109 21 191-38 213-18 7-37 10-58 10-1 0-3 0-4 0z m-352-303c79 0 128-48 128-129l-252 0c0 77 46 129 124 129z m-367-422c58-83 149-145 256-171-77-58-226-84-266-52-48 40-36 124 10 223z" horiz-adv-x="944" />

<glyph glyph-name="dir-down" unicode="&#xe82f;" d="M571 457q0-14-10-25l-250-250q-11-11-25-11t-25 11l-250 250q-11 11-11 25t11 25 25 11h500q14 0 25-11t10-25z" horiz-adv-x="571.4" />

<glyph glyph-name="dir-up" unicode="&#xe830;" d="M571 171q0-14-10-25t-25-10h-500q-15 0-25 10t-11 25 11 26l250 250q10 10 25 10t25-10l250-250q10-11 10-26z" horiz-adv-x="571.4" />

<glyph glyph-name="dir-left" unicode="&#xe831;" d="M357 600v-500q0-14-10-25t-26-11-25 11l-250 250q-10 11-10 25t10 25l250 250q11 11 25 11t26-11 10-25z" horiz-adv-x="357.1" />

<glyph glyph-name="dir-right" unicode="&#xe832;" d="M321 350q0-14-10-25l-250-250q-11-11-25-11t-25 11-11 25v500q0 15 11 25t25 11 25-11l250-250q10-10 10-25z" horiz-adv-x="357.1" />

<glyph glyph-name="open-down" unicode="&#xe833;" d="M939 399l-414-413q-10-11-25-11t-25 11l-414 413q-11 11-11 26t11 25l93 92q10 11 25 11t25-11l296-296 296 296q11 11 25 11t26-11l92-92q11-11 11-25t-11-26z" horiz-adv-x="1000" />

<glyph glyph-name="open-left" unicode="&#xe834;" d="M654 682l-297-296 297-297q10-10 10-25t-10-25l-93-93q-11-10-25-10t-25 10l-414 415q-11 10-11 25t11 25l414 414q10 11 25 11t25-11l93-93q10-10 10-25t-10-25z" horiz-adv-x="714.3" />

<glyph glyph-name="open-right" unicode="&#xe835;" d="M618 361l-414-415q-11-10-25-10t-25 10l-93 93q-11 11-11 25t11 25l296 297-296 296q-11 11-11 25t11 25l93 93q10 11 25 11t25-11l414-414q10-11 10-25t-10-25z" horiz-adv-x="714.3" />

<glyph glyph-name="angle-left" unicode="&#xe836;" d="M350 546q0-7-6-12l-219-220 219-219q6-6 6-13t-6-13l-28-28q-5-5-12-5t-13 5l-260 261q-6 5-6 12t6 13l260 260q5 6 13 6t12-6l28-28q6-5 6-13z" horiz-adv-x="357.1" />

<glyph glyph-name="open-up" unicode="&#xe837;" d="M939 107l-92-92q-11-10-26-10t-25 10l-296 297-296-297q-11-10-25-10t-25 10l-93 92q-11 11-11 26t11 25l414 414q11 10 25 10t25-10l414-414q11-11 11-25t-11-26z" horiz-adv-x="1000" />

<glyph glyph-name="angle-right" unicode="&#xe838;" d="M332 314q0-7-5-12l-261-261q-5-5-12-5t-13 5l-28 28q-6 6-6 13t6 13l219 219-219 220q-6 5-6 12t6 13l28 28q5 6 13 6t12-6l261-260q5-5 5-13z" horiz-adv-x="357.1" />

<glyph glyph-name="angle-up" unicode="&#xe839;" d="M600 189q0-7-6-12l-28-28q-5-6-12-6t-13 6l-220 219-219-219q-5-6-13-6t-12 6l-28 28q-6 5-6 12t6 13l260 260q5 6 12 6t13-6l260-260q6-5 6-13z" horiz-adv-x="642.9" />

<glyph glyph-name="angle-down" unicode="&#xe83a;" d="M600 439q0-7-6-12l-260-261q-5-5-13-5t-12 5l-260 261q-6 5-6 12t6 13l28 28q5 6 12 6t13-6l219-219 220 219q5 6 13 6t12-6l28-28q6-5 6-13z" horiz-adv-x="642.9" />

<glyph glyph-name="menu-logout" unicode="&#xe83b;" d="M635 319h-604c-17 0-31 14-31 31 0 17 14 31 31 31h602l-113 113c-12 13-12 32 0 45 12 12 32 12 44 0l185-190-185-189c-6-6-14-9-22-9-8 0-16 3-22 9-12 12-12 32 0 44l115 115z m303 531h-563c-34 0-62-28-62-63v-281h63v243c0 21 17 38 37 38h485c21 0 38-17 38-38l1-799c0-21-17-38-38-38h-486c-20 0-37 17-37 38v245l-63 0v-283c0-34 28-62 62-62h563c34 0 62 28 62 62v875c0 35-28 63-62 63z" horiz-adv-x="1000" />

<glyph glyph-name="menu-user" unicode="&#xe83c;" d="M500 787c106 0 219-89 219-156v-156c0-60-25-175-92-228-17-13-26-35-24-56 3-22 17-41 36-50l272-129c3-1 26-5 26-38l1-62h-875v64c0 25 18 33 26 36l274 130c20 9 34 27 36 49 3 21-6 43-23 56-65 52-95 167-95 228v156c0 66 114 156 219 156m0 63c-138 0-281-115-281-219v-156c0-68 31-206 118-277l-275-129c0 0-62-28-62-63v-94c0-34 28-62 62-62h876c34 0 62 28 62 62v94c0 37-62 63-62 63l-273 129c87 68 116 202 116 277v156c0 104-143 219-281 219l0 0 0 0z" horiz-adv-x="1000" />

<glyph glyph-name="logo-one-beta" unicode="&#xe83d;" d="M3045 412v1c6 1 11 4 15 9 3 4 5 10 5 17 0 10-3 17-11 22-7 5-19 7-35 7h-35v-117h43c13 0 23 3 31 9 7 6 11 14 11 24 0 8-2 14-6 19-4 5-10 8-18 9z m-41 40h16c9 0 15-1 19-4 4-2 6-6 6-12 0-6-2-10-5-13-4-2-10-3-18-3h-18v32z m38-81c-4-3-10-4-18-4h-20v37h19c9 0 15-1 19-4 4-3 6-8 6-14 0-7-2-12-6-15z m64 97h66v-16h-47v-32h44v-16h-44v-37h47v-16h-66v117z m91 0h88v-16h-34v-101h-20v101h-34v16z m168 1h-21l-44-118h20l12 32h45l12-32h20l-44 118z m-27-69l10 31c3 7 5 15 7 21 0-2 1-5 2-10s3-8 4-10l11-32h-34z m-1043 65c-47 0-83-14-109-43-26-29-38-69-38-121 0-52 12-93 38-122 25-29 62-43 109-43 46 0 82 15 108 44 26 29 38 69 38 121 0 51-12 91-38 120-26 29-62 44-108 44z m80-263c-18-22-45-33-80-33-35 0-62 11-81 33-18 22-27 55-27 99 0 42 9 75 27 97 19 22 46 34 81 34 35 0 62-11 80-34 18-22 27-54 27-97 0-44-9-77-27-99z m288 161c15-14 22-36 22-66v-157h-36v155c0 20-5 34-14 44-8 10-22 14-41 14-25 0-44-6-55-20-12-13-18-36-18-67v-126h-36v240h29l6-33h2c7 12 18 21 31 28 14 6 29 9 45 9 29 0 51-7 65-21z m166 21c-32 0-58-11-77-34-19-23-28-53-28-92 0-38 10-68 31-90 20-21 48-32 83-32 17 0 30 1 42 4 11 2 23 6 36 11v33c-25-11-51-16-76-16-25 0-44 7-57 22-14 14-21 35-22 64h165v22c0 33-8 59-26 79-17 19-41 29-71 29z m-67-101c2 22 9 40 21 52 11 13 26 19 46 19 18 0 33-6 43-18 10-13 16-30 16-53h-126z m-2075 254l142 242c12-6 24-14 36-21l-166-231c-4 3-8 7-12 10z m30-30l189 221c10-9 21-18 31-27l-212-207c-2 5-5 9-8 13z m-67 48l90 264c14-4 27-9 39-15l-113-255c-5 2-10 4-16 6z m-39 9c-1 0-2 1-3 1l42 277c13-2 27-5 40-8l-66-272c-1 0-2 0-2 0-5 1-9 2-11 2l0 0z m-38 0c-5-1-10-2-16-3l7 289c14 0 28-1 42-2l-33-284z m425 69l-256-181c-1 4-3 9-4 13l234 200c9-10 18-21 26-32z m-244-203l275 160c8-12 15-24 21-37l-279-129h-13c-2 2-3 4-4 6z m-246 120l-29 295c14 2 28 3 42 4l1-296c0 0 0 0 0 0-5-1-10-2-14-3z m483-109l-152-42c-1 7-5 12-10 17l175 67c0-1-1-2-1-3-6-13-9-25-12-39z m-88-90l-63-2v18l63 8v-24z m132-237c12-1 28-2 46-2l-6-23-42 12c1 4 1 8 2 13z m-88-124l40-32-27-36-59 57c15 2 30 4 46 11z m-181 121l-21 21c1 3 2 7 2 11v3c0 1 1 2 2 2l8-6c8-8 16-15 25-20l13-11-29 0z m248-60l35-16-9-21c-3-6-7-13-11-19l-40 23c10 10 18 21 25 33z m22 258c12-11 29-22 49-30l-49 3v27z m-133-16l-63 4v19l63 1v-24z m-63-28l63-6c0-8-3-15-9-21-1-1-2-2-3-3l-46 8c-3 5-5 10-5 17v5z m272-29c-12 0-21 3-29 7l29-3c0-2 0-3 0-4z m-391-126l6-8c0 0-1 0-1-1-4-3-6-8-8-13l-12 17c2 1 4 3 6 4h1c3 0 5 1 8 1z m114-132l83-96-34-30-88 126c12 0 26 0 39 0z m-823 195l215 55v-32l-202-72c0 1 0 2 0 2l-10 35c-1 4-2 8-3 12z m287 371l-154 124c9 11 19 20 30 30l149-143c-9-3-17-6-25-11z m-299-273l227 14v-25l-223-38c-2 16-3 33-4 49z m474 277l-93 274c13 4 26 8 40 11l70-287c-1 0-3 0-4 0-4 0-8 1-13 2z m-206-28c-5-6-11-12-15-19l-164 95c8 12 16 23 24 34l155-110z m91 44l-145 168c10 8 22 16 33 24l138-191c-5 0-11 0-17 0-2 0-3 0-5-1l0 0c-1 0-2 0-4 0z m0-1l0 0c1 0 1 1 2 1-1 0-1-1-2-1z m-355-199l223-17v-26l-227 3c1 14 3 27 4 40z m417 197l-132 220c12 7 24 13 37 19l118-245c-6 2-12 3-18 5 0 0-1 0-2 0-1 0-2 0-3 1z m-398-108l204-49v-25l-215 33c3 14 7 28 11 41z m38 93l175-81c-2-8-4-16-6-24l-188 66c6 14 12 26 19 39z m1925-64h34v-5h-14v-39h-6v39h-14v5z m73 0h8v-44h-5v37l-13-37h-5l-13 37v-37h-5v44h8l11-31c1-3 1-5 2-6 0 1 1 3 2 7l10 30z m-1403-341v257c0 19-7 36-20 49-14 14-31 21-50 21-26 0-46-11-60-36v-291h-64v257c0 19-7 35-20 49-28 28-73 27-100 0-14-13-21-30-21-49v-257h-63v257c0 37 13 69 39 94 26 26 58 39 95 39 37 0 69-13 95-39l2-2 2 2c26 26 58 39 95 39 37 0 69-13 95-39 25-25 38-57 38-94v-257h-63z m224-134l-119 0 0 60 119 0c19 0 35 7 48 20 13 13 19 29 19 47v17l-4-3c-19-11-41-16-63-16-35 0-66 12-90 37-25 24-37 54-37 90v127h60v-127c0-19 6-35 19-48 26-26 69-26 96 0 13 13 19 29 19 48v127h61v-252c0-36-13-66-37-90-25-25-55-37-91-37z m568 129l-30 1c-36 0-67 12-92 37-26 25-38 56-38 92v239h65v-116h65v-56h-65v-67c0-18 7-33 19-45 9-9 20-15 32-17 8-27 23-50 44-68z m-203 181c13-18 20-42 21-73 0-22-3-41-14-57-28-41-72-56-133-56-25 0-52 5-81 18l1 73c86-48 157-30 157 22v1c0 42-77 48-110 66-39 23-59 55-59 97v3c0 20 5 38 16 55 10 17 24 30 42 40 34 18 109 24 169 0v-70c-60 37-155 35-155-22 0-22 16-38 49-47 5-2 17-6 34-11 29-9 50-22 63-39z m509 34c25 25 56 38 92 38v-66c-18 0-33-6-46-18-12-13-19-28-19-46v-122h-65v122c0 36 12 67 38 92z m250-149l10 0 0-66-10 1c-36 0-67 12-93 37-25 25-37 56-37 92v239h65v-116h65v-56h-65v-67c0-18 7-33 19-45 13-13 28-19 46-19z m-449 189c-1 0-3 0-5 0-72 0-131-59-131-131 0-73 59-132 131-132 26 0 50 7 70 20v-11h66v124c0 37-13 67-38 92-26 25-56 38-93 38z m43-178c-13-13-28-20-47-20-13 0-25 4-37 12-19 13-28 31-28 54 0 14 4 26 12 38 12 19 30 28 53 28 15 0 27-4 38-12 19-13 28-31 28-54 0-18-6-34-19-46z" horiz-adv-x="3409" />

<glyph glyph-name="logo-mystart" unicode="&#xe83e;" d="M1969 485h35v-5h-15v-38h-5v38h-15v5z m74 0l-11-30c-1-3-1-6-2-7 0 1-1 3-2 6l-10 31h-9v-43h6v36l12-36h5l13 36v-36h5v43h-7z m-1349 44l164 229c-12 8-23 15-36 22l-141-241c4-3 9-6 13-10z m25-32l211 205c-11 9-21 18-32 27l-187-219c3-4 6-9 8-13z m-59 54l113 253c-13 6-26 11-39 16l-89-262c5-2 10-4 15-7z m-54 16c3-1 6-1 11-3 0 0 1 0 2 0l65 270c-13 4-26 6-40 9l-41-276c1 0 2 0 3 0l0 0z m2-1c2 0 4-1 6-2-2 1-4 2-6 2z m-7 282c-13 1-27 2-41 2l-7-286c5 1 11 1 16 2l32 282z m363-181l-232-198c1-5 3-9 4-14l254 180c-8 11-17 22-26 32z m-213-240h14l277 129c-7 12-14 24-21 36l-273-159c1-1 2-4 3-6z m-233 129c0 0 0 0 0 0l-2 293c-13-1-27-2-41-4l29-293c4 1 9 2 14 4z m477-73c0 1 1 2 1 3l-174-67c5-4 9-10 11-17l150 43c3 13 6 26 12 38z m-99-104l-62-8v-18l62 2v24z m128-272l42-12 7 23c-18 0-35 1-47 2 0-5-1-9-2-13z m-130-121l58-56 27 35-40 32c-15-7-31-9-45-11z m-105 131l-13 11c-9 5-17 12-25 19l-8 7c-1-1-2-1-2-2v-3c0-4-1-8-2-11l21-21 29 0z m192-92l40-23c3 6 7 12 11 19l9 20-35 16c-7-11-15-22-25-32z m47 262l48-4c-20 8-36 19-48 31v-27z m-132 34l-62 0v-19l62-5v24z m-62-56c0-7 1-12 4-17l45-8c1 1 3 2 4 3 6 6 9 12 9 21l-62 6v-5z m269-20l-29 2c8-3 17-6 29-6 0 1 0 2 0 4z m-395-130h-2c-2-1-4-3-5-4l11-17c2 5 5 10 8 13 1 1 1 1 1 1l-6 8c-3 0-5-1-7-1z m81-130l88-125 33 30-82 95c-13 0-26 0-39 0z m-774 182l10-35c0-1 0-1 0-2l200 71v32l-213-54c1-4 2-8 3-12z m307 391l-149 141c-10-9-20-19-29-29l153-123c8 4 16 8 25 11z m-318-331l221 38v25l-225-14c1-16 2-33 4-49z m479 321c1 0 3 1 4 1l-70 284c-13-3-26-7-39-11l92-272c5 0 9-1 13-2z m-370 84c-9-11-17-22-24-34l162-95c4 7 9 14 15 20l-153 109z m247-65l0 0c2 0 4 0 5 0 6 1 11 0 17 0l-137 190c-11-8-22-16-33-24l144-167c2 0 3 0 4 1z m-2-1c0 0-1 0-2 0l0-1c1 1 2 1 2 1z m-358-237l225-4v26l-221 17c-1-13-3-26-4-39z m421 233c1 0 1 0 2 0 6-1 12-3 17-4l-117 242c-12-5-25-11-37-18l132-219c1 0 2 0 3-1z m-409-147l213-32v24l-202 50c-4-14-8-28-11-42z m30 95l186-66c2 8 4 16 6 24l-174 81c-6-13-12-26-18-39z m672-364v255c0 37-13 69-39 94-26 26-57 39-94 39-37 0-68-14-94-40l-2-1-2 1c-26 26-58 40-94 40-37 0-69-13-95-39-25-25-38-57-38-94v-255h62v255c0 20 7 36 21 50 27 26 71 27 99-1 14-13 21-30 21-49v-255h62v290c14 24 35 35 60 35 20 0 36-7 50-20 13-14 20-30 20-50v-255h63z m249-96c24 24 36 54 36 90v250h-59v-126c0-19-7-35-20-48-26-26-69-25-95 0-12 13-19 29-19 48v126h-60v-126c0-35 13-66 37-90 25-24 55-37 90-37 22 0 43 6 63 17l4 2v-16c0-19-7-34-20-47-13-13-29-20-47-20l-118 0 0-59 118 0c35 0 66 12 90 36z m429 159c-11 2-22 8-31 17-12 12-18 27-18 45v66h64v55h-64v116h-66v-237c0-36 13-67 38-91 25-25 56-38 92-38l29 0c-20 17-36 41-44 67z m-157 112c-13 17-34 30-62 39-18 5-29 9-35 10-32 10-48 26-48 48 0 56 94 58 154 22v68c-60 25-134 18-168 0-17-9-31-22-42-39-10-17-16-35-16-54v-3c0-42 20-74 60-96 32-18 109-24 109-66v-1c0-52-71-69-156-22l-1-73c29-12 56-17 80-17 60 0 105 15 132 55 10 16 14 35 13 57-1 31-7 55-20 72z m467-57v-122h65v122c0 18 6 33 19 45 12 12 27 19 45 19v64c-36 0-67-12-92-37-25-25-37-55-37-91z m240-38c-12 12-18 27-18 45v66h64v55h-64v116h-66v-237c0-36 13-67 38-91 25-25 56-38 92-38l10 0 0 65-10 0c-18 0-33 7-46 19z m-308 131c25-25 38-55 38-91v-124h-65v12c-20-13-44-20-69-20-72 0-131 58-131 130s59 131 131 131c1 0 3 0 5 0 36 0 66-13 91-38z m-30-93c0 23-9 41-28 54-11 7-23 11-37 11-23 0-41-9-53-28-8-11-12-24-12-37 0-23 9-41 28-53 11-8 24-12 37-12 18 0 33 6 46 19 13 12 19 28 19 46z" horiz-adv-x="2067" />

<glyph glyph-name="plus" unicode="&#xe83f;" d="M1000 350c0-34-28-62-62-62h-375v-376c0-34-28-62-63-62s-62 28-62 62v376h-375c-35 0-63 28-63 62 0 35 28 63 63 63h375v375c0 34 28 62 62 62s63-28 63-62v-375h375c34 0 62-28 62-63z" horiz-adv-x="1000" />

<glyph glyph-name="newtab-carousel" unicode="&#xe840;" d="M867 584v120h-734v-120h-133v-468h133v-120h734v120h133v468h-133z m-734-441h-110v414h110v-414z m687-92h-640v598h640v-598z m157 92h-110v414h110v-414z" horiz-adv-x="1000" />

<glyph glyph-name="thumb-up" unicode="&#xe841;" d="M907 252c-1 33-21 59-37 76 6 15 9 43 8 65-1 67-47 114-117 114-50 0-156-1-214-2 17 77 35 220-1 287-18 33-54 58-86 58-57 0-60-27-75-67-89-236-222-371-318-371-9 0-18-5-24-14-1-3-43-71-43-219 0-150 58-244 61-247 5-7 13-11 22-12 116-8 148-18 165-32 32-26 34-38 291-38 163 0 265 31 281 108 3 19 2 44 0 57 21 16 55 47 57 96 0 19-7 36-11 48 16 18 42 51 41 93z m-93-59c-12-10-15-30-7-44 0 0 14-14 13-36-1-35-58-57-58-57-14-7-20-25-14-41 0 0 21-22 16-44-11-55-153-59-225-59-239 0-235 8-257 26-29 24-83 37-184 46-14 24-41 99-41 195 0 95 18 147 28 172 116 13 257 157 352 407 10 26 19 29 23 29 28 0 30-13 37-27 26-47 11-185-17-273-3-10-3-21 2-30 6-9 14-14 24-14 0 0 184 1 255 1 10 0 60-2 61-52 0-24-14-49-14-49-5-7-7-17-5-26 1-8 7-16 14-21 1 0 32-19 33-45 1-34-36-58-36-58z" horiz-adv-x="910" />

<glyph glyph-name="thumb-down" unicode="&#xe842;" d="M0 448c1-33 21-59 36-76-6-14-8-43-8-65 2-67 48-113 118-113 50 0 156 0 214 1-17-77-36-220 1-287 18-33 54-58 86-58 56 0 60 27 75 67 89 236 222 371 317 371 10 0 19 5 24 14 2 4 44 71 44 219 0 150-59 244-61 247-5 7-13 11-22 12-116 8-148 18-165 32-32 26-34 38-291 38-164 0-266-31-281-108-4-19-2-44-1-57-21-16-54-47-56-95-1-20 7-36 10-49-16-18-41-51-40-93z m93 60c12 9 15 29 7 43-1 0-14 14-14 36 2 35 58 57 58 57 14 7 21 26 15 41 0 0-21 22-17 44 11 55 153 59 226 59 238 0 235-8 257-26 28-24 83-37 184-46 13-24 41-99 41-195 0-95-19-147-29-172-115-13-257-157-351-407-10-26-19-29-23-29-28 0-30 13-38 27-25 47-10 186 18 274 3 9 2 20-3 29-5 9-14 14-24 14 0 0-183-1-254-1-11 0-60 2-61 52-1 24 14 49 14 49 5 8 6 17 5 26-2 8-7 16-14 21-1 0-33 19-33 46-1 33 35 57 36 58z" horiz-adv-x="910" />

<glyph glyph-name="pin" unicode="&#xe843;" d="M992 479l-360 362c-8 8-19 11-30 8-10-2-19-10-22-21-22-70-24-133-7-190-2-2-3-2-5-4l-167-167c-54 25-112 39-170 39-37 0-73-6-107-16-10-4-18-12-21-23-3-10 1-22 8-29l214-216-299-304-26-68 63 24 306 304 217-218c6-6 14-9 22-9 2 0 5 0 7 1 11 2 20 10 23 21 28 91 19 188-20 276l171 171c0 1 0 2 1 2 26-7 53-11 80-11 35 0 71 5 109 16 10 4 18 12 21 23 2 10-1 22-8 29z m-403-434l-393 396c101 12 210-29 289-108 78-78 116-187 104-288z m-3 261c-16 25-35 49-57 72-22 22-46 41-71 57l140 141c15-25 33-49 56-71 23-24 48-42 74-57l-142-142z m112 243c-60 60-83 127-71 208l281-282c-81-11-148 13-210 74z" horiz-adv-x="1004" />

<glyph glyph-name="magnify" unicode="&#xe844;" d="M984-21l-268 228c121 157 110 383-34 526-156 156-410 156-565 0-156-156-156-410 0-565 141-141 361-154 517-41l230-268c10-12 27-12 38-1l83 83c11 11 10 28-1 38z m-392 280c-106-106-278-107-384-1-106 106-106 278-1 384 106 106 278 107 384 1 106-106 107-278 1-384z" horiz-adv-x="996" />

<glyph glyph-name="heart" unicode="&#xe845;" d="M1017 756c-63 63-133 94-219 94-82 0-173-65-241-135-71 70-159 135-244 135-83 0-156-25-216-86-127-126-127-331 0-457 36-37 387-427 387-427 20-20 46-30 72-30 27 0 53 10 73 30 0 0 384 414 388 419 126 126 126 331 0 457z m-50-409c-4-4-213-230-388-419-8-8-18-9-23-9-5 0-14 1-22 9-43 47-352 392-388 428-49 48-75 112-75 179 0 68 26 132 75 180 47 47 101 65 167 65 34 0 96-16 195-114l49-48 49 49c69 70 143 114 192 114 66 0 119-23 170-74 48-48 74-112 74-180 0-68-26-131-75-180z" horiz-adv-x="1113" />

<glyph glyph-name="feed-rss-bold" unicode="&#xe846;" d="M266-16c0-74-59-133-133-133-73 0-133 59-133 133 0 73 60 133 133 133 74 0 133-60 133-133z m-266 866v-192c446 0 808-362 808-808h192c0 551-448 1000-1000 1000z m0-340v-191c125 0 242-49 331-138 88-88 137-206 137-331h192c0 364-296 660-660 660z" horiz-adv-x="1000" />

<glyph glyph-name="ok-circ-bold" unicode="&#xe847;" d="M500 850c-275 0-500-225-500-500 0-275 225-500 500-500 275 0 500 225 500 500 0 275-225 500-500 500z m0-906c-225 0-406 181-406 406 0 225 181 406 406 406 225 0 406-181 406-406 0-225-181-406-406-406z m169 569c-13 0-25-7-31-13l0 0-175-187-94 93 0 0c-13 13-25 19-38 19-25 0-50-19-50-50 0-12 7-25 13-31l0 0 125-144c6-12 19-12 37-12 13 0 25 6 38 12l212 225 0 0c7 6 13 19 13 31-6 32-25 57-50 57z" horiz-adv-x="1000" />

<glyph glyph-name="x-circ-bold" unicode="&#xe848;" d="M500-150c-276 0-500 224-500 500 0 276 224 500 500 500 276 0 500-224 500-500 0-276-224-500-500-500l0 0z m0 906c-224 0-406-182-406-406 0-224 182-406 406-406 224 0 406 182 406 406 0 224-182 406-406 406l0 0z m187-548c0-12-5-23-13-32-9-8-20-13-31-13-13-1-26 4-35 13l-108 108-107-108c-10-9-23-14-35-13-12 0-23 5-32 13-8 9-13 20-13 32-1 12 4 25 13 35l108 107-108 107c-9 10-14 23-13 36 0 11 5 22 13 31 9 8 20 13 32 13 12 1 25-4 35-13l107-108 108 108c9 9 22 14 35 13 11 0 22-4 31-13 8-9 13-20 13-31 1-13-4-26-13-35l-108-108 108-107c9-10 14-23 13-35l0 0z" horiz-adv-x="1000" />

<glyph glyph-name="music-circ" unicode="&#xe849;" d="M612 191c28 83 71 155-64 274l-38-290c-4-24-15-59-51-80-75-43-150 1-161 47-19 89 57 159 176 90l53 391 47-8c45-130 41-84 87-149 98-147 8-251-49-275z m-112 614c-251 0-454-204-454-455s203-455 454-455 455 204 455 455-204 455-455 455m0 45c276 0 500-224 500-500 0-276-224-500-500-500-276 0-500 224-500 500 0 276 224 500 500 500l0 0z" horiz-adv-x="1000" />

<glyph glyph-name="pin-circ" unicode="&#xe84a;" d="M500-150c-276 0-500 224-500 500 0 276 224 500 500 500 276 0 500-224 500-500 0-276-224-500-500-500l0 0z m0 938c-241 0-437-197-437-438 0-241 196-438 437-438s438 197 438 438c0 241-197 438-438 438l0 0z m267-388l-215 217c-5 4-12 6-18 4-6-1-12-6-14-12-12-42-14-80-4-114-1-1-2-1-3-2l-100-100c-32 15-67 23-101 23-22 0-44-3-64-10-7-2-11-7-13-13-1-6 0-13 5-18l128-129-125-127-15-41 37 15 129 127 130-130c4-4 8-6 13-6 2 0 3 0 5 1 6 1 11 6 13 12 17 55 12 113-12 166l102 102c1 0 1 1 1 1 16-5 32-7 48-7 21 0 43 3 65 10 6 2 11 7 13 14 1 6-1 13-5 17z m-241-260l-235 237c60 7 125-17 172-64 47-47 70-112 63-173z m-2 157c-9 15-21 29-34 42-13 13-28 25-43 35l85 84c8-15 19-29 33-43 14-14 29-25 44-34l-85-84z m67 145c-36 36-50 76-42 124l168-168c-49-7-89 7-126 44z" horiz-adv-x="1000" />

<glyph glyph-name="newtab-welcome" unicode="&#xe84b;" d="M906 772c9 0 16-7 16-16v-625c0-8-7-15-16-15h-401c-13 0-26-4-38-10l-211-114 4 35c4 22-3 45-18 62-15 17-36 27-59 27h-89c-9 0-16 7-16 15v625c0 9 7 16 16 16h812m0 78h-812c-52 0-94-42-94-94v-625c0-51 42-93 94-93h89l-27-188 349 188h401c52 0 94 42 94 93v625c0 52-42 94-94 94l0 0z" horiz-adv-x="1000" />

<glyph glyph-name="wallpaper-panel-circ-mask" unicode="&#xe84c;" d="M958 205c0 0-107-263-325-307-284-57-428 71-457 101l-1-1-3 5c-1 1-2 2-2 2l1 0-118 196 198 195 157-155 249 247 301-283z" horiz-adv-x="1000" />

<glyph glyph-name="wallpaper-panel-circ" unicode="&#xe84d;" d="M500 850c-276 0-500-224-500-500 0-276 224-500 500-500 276 0 500 224 500 500 0 276-224 500-500 500z m-409-655l159 160 104-104c3-3 7-5 11-7l-189-188c-36 40-66 87-85 139z m409-283c-106 0-203 38-279 101l435 436 253-253c-62-166-222-284-409-284z m182 598c-1 1-2 3-4 4-6 7-14 10-22 9-8 1-16-2-22-9-1-1-2-2-3-3l-227-227c-1 4-4 8-7 11l-121 121c-1 2-2 3-4 5-6 6-14 9-22 9-8 0-16-3-22-9-1-2-2-3-3-4l-154-154c-5 28-8 57-8 87 0 242 195 438 437 438 242 0 438-196 438-438 0-30-3-59-9-87l-247 247z m-213 76c0-35-28-63-63-63-34 0-62 28-62 63 0 34 28 62 62 62 35 0 63-28 63-62z" horiz-adv-x="1000" />

<glyph glyph-name="heart-circ" unicode="&#xe84e;" d="M500 850c-276 0-500-224-500-500 0-276 224-500 500-500s500 224 500 500c0 276-224 500-500 500z m0-938c-242 0-437 196-437 438s195 438 437 438 438-196 438-438-196-438-438-438z m123 688c-50 0-94-31-123-71-29 40-73 71-123 71-87 0-158-80-158-179 0-204 281-321 281-321s281 117 281 321c0 99-71 179-158 179z m-123-430c-78 39-219 136-219 256 0 65 43 118 96 118 25 0 52-17 72-46l51-72 51 72c20 29 47 46 72 46 53 0 96-53 96-118 0-130-158-225-219-256z" horiz-adv-x="1000" />

<glyph glyph-name="heart-circ-mask" unicode="&#xe84f;" d="M500 132c-89 46-250 158-250 299 0 76 49 137 109 137 29 0 60-20 83-53l58-71 58 71c23 33 54 53 83 53 60 0 109-61 109-137 0-152-181-262-250-299z" horiz-adv-x="1000" />

<glyph glyph-name="share-email-circ" unicode="&#xe850;" d="M500 850c-276 0-500-224-500-500 0-276 224-500 500-500 276 0 500 224 500 500 0 276-224 500-500 500z m0-938c-242 0-437 196-437 438s195 438 437 438c242 0 438-196 438-438s-196-438-438-438z m244 459c0-29-5-55-14-79-9-23-22-42-39-56s-36-20-58-20c-15 0-28 4-39 12-11 7-20 17-25 28h-4c-22-27-49-39-82-39-36 0-63 10-84 31s-30 50-30 87c0 42 13 76 40 101 27 26 61 39 104 39 17 0 36-2 57-5 20-4 37-7 51-12l-7-146c0-28 7-41 23-41 12 0 22 9 30 28 7 18 11 42 11 72 0 32-6 61-20 85-13 25-32 44-56 57s-52 19-83 19c-40 0-75-8-104-25-30-16-53-40-68-71-16-31-24-67-24-108 0-55 14-97 44-126 29-30 72-44 127-44 21 0 44 2 69 7 25 4 50 11 74 20v-57c-39-18-89-27-141-27-76 0-134 20-176 59-43 40-64 95-64 166 0 49 11 94 33 134 21 40 52 71 92 94 40 23 86 34 138 34 43 0 83-9 117-27 34-17 61-43 80-76s28-71 28-114z m-306-37c0-42 17-63 52-63 17 0 31 6 40 19 10 12 15 33 17 61l4 66c-10 2-21 3-34 3-25 0-44-7-58-23-14-15-21-37-21-63z" horiz-adv-x="1000" />

<glyph glyph-name="share-twitter-circ" unicode="&#xe851;" d="M500 850c-276 0-500-224-500-500 0-276 224-500 500-500 276 0 500 224 500 500 0 276-224 500-500 500z m0-938c-242 0-437 196-437 438s195 438 437 438c242 0 438-196 438-438s-196-438-438-438z m213 621c-18-10-38-18-59-22-16 18-41 29-67 29-51 0-93-41-93-92 0-8 1-15 3-21-77 3-145 40-191 96-8-13-13-29-13-46 0-32 17-61 42-77-16 0-30 4-42 11 0 0 0-1 0-1 0-45 31-82 74-91-8-2-16-3-25-3-6 0-11 1-17 2 12-37 46-64 86-65-31-24-71-39-114-39-8 0-15 0-23 1 41-26 90-41 142-41 171 0 264 141 264 263 0 4 0 8-1 12 19 13 34 29 47 48-17-8-35-13-54-15 20 12 34 30 41 51z" horiz-adv-x="1000" />

<glyph glyph-name="newtab-language" unicode="&#xe852;" d="M500 850c0 0 0 0 0 0h-1c0 0 0 0 0 0-276-1-499-224-499-500s223-499 499-500c0 0 0 0 0 0h1c0 0 0 0 0 0 276 0 500 224 500 500 0 276-224 500-500 500z m-109-53c-38-40-71-101-94-176-44 13-85 30-125 51 59 60 135 104 219 125z m-246-156c44-24 91-44 141-59-16-64-26-134-27-212h-218c4 101 42 197 104 271z m0-582c-62 74-100 170-104 272h218c1-79 11-149 27-213-50-15-97-35-141-59z m27-31c40 21 81 38 125 52 23-75 56-137 94-177-84 21-160 65-219 125z m309-135c-55 14-110 86-145 197 47 11 94 18 145 20v-217z m0 256c-55-1-106-8-156-20-15 59-25 127-26 202h182v-182z m0 221h-182c1 74 11 142 26 201 50-12 101-19 156-20v-181z m0 221c-51 1-98 8-145 19 35 111 90 183 145 197v-216z m374 51c62-75 100-171 105-272h-220c-1 78-11 148-27 211 50 16 98 36 142 61z m-27 30c-40-21-82-38-126-52-23 76-56 137-95 177 85-20 161-64 221-125z m-308 135c54-15 108-87 143-197-46-11-93-18-143-19v216z m0-256c54 1 104 8 154 20 15-59 25-127 26-201h-180v181z m0-220h180c-1-75-11-143-26-202-50 12-100 19-154 20v182z m0-438v217c50-2 97-8 143-20-35-110-89-182-143-197z m87 10c39 40 72 102 95 177 44-13 86-31 126-52-60-61-136-105-221-125z m249 156c-45 24-93 45-143 60 16 64 26 133 27 212h220c-5-102-43-198-104-272z" horiz-adv-x="1000" />

<glyph glyph-name="share-facebook-circ" unicode="&#xe853;" d="M500 850c-276 0-500-224-500-500 0-276 224-500 500-500s500 224 500 500c0 276-224 500-500 500z m0-938c-242 0-437 196-437 438s195 438 437 438 438-196 438-438-196-438-438-438z m39 524l0 41c0 23 1 33 33 33h41v86h-66c-82 0-101-42-101-111l1-50-60 0v-85h58v-246h94l0 246 67 1 9 85h-76z" horiz-adv-x="1000" />

<glyph glyph-name="share-social-circ-mask" unicode="&#xe854;" d="M688 194c0-52-42-94-94-94s-94 42-94 94c0 52 42 94 94 94s94-42 94-94z m-407 250c-51 0-93-42-93-94s42-94 93-94 94 42 94 94-42 94-94 94z m313-31c52 0 94 42 94 93s-42 94-94 94-94-42-94-94 42-93 94-93z" horiz-adv-x="1000" />

<glyph glyph-name="share-social-circ" unicode="&#xe855;" d="M594 413c52 0 94 42 94 93s-42 94-94 94-94-42-94-94c0-11 2-21 5-31l-143-77c-17 28-47 46-81 46-51 0-93-42-93-94s42-94 93-94c35 0 66 19 82 48l142-79c-3-10-5-20-5-31 0-52 42-94 94-94s94 42 94 94c0 52-42 94-94 94-18 0-35-5-49-14l-139 77 140 75c14-9 30-13 48-13z m0 125c17 0 31-14 31-32s-14-31-31-31-31 14-31 31 14 32 31 32z m-313-219c-17 0-31 14-31 31 0 17 14 31 31 31s32-14 32-31c0-17-14-31-32-31z m313-94c17 0 31-14 31-31s-14-31-31-31-31 14-31 31 14 31 31 31z m-94 625c-276 0-500-224-500-500 0-276 224-500 500-500 276 0 500 224 500 500 0 276-224 500-500 500z m0-938c-242 0-437 196-437 438s195 438 437 438c242 0 438-196 438-438s-196-438-438-438z" horiz-adv-x="1000" />

<glyph glyph-name="thumb-up-mask" unicode="&#xe856;" d="M864 252c-1 33-21 59-37 76 6 15 9 43 8 65-1 67-47 114-117 114-50 0-156-1-214-2 17 77 35 220-1 287-18 33-54 58-86 58-57 0-60-27-75-67-89-236-222-371-318-371-9 0-18-5-24-14-1-3-43-71-43-219 0-150 58-244 61-247 5-7 13-11 22-12 116-8 148-18 165-32 32-26 34-38 291-38 163 0 265 31 281 108 3 19 2 44 0 57 21 16 55 47 57 96 0 19-7 36-11 48 16 18 42 51 41 93z" horiz-adv-x="910" />

<glyph glyph-name="heart-mask" unicode="&#xe857;" d="M1075 756c-63 63-133 94-218 94-82 0-174-65-242-135-70 70-158 135-243 135-83 0-156-25-217-86-126-126-126-331 0-457 36-37 387-427 387-427 20-20 47-30 73-30 26 0 52 10 72 30 0 0 384 414 388 419 127 126 127 331 0 457z" horiz-adv-x="1113" />

<glyph glyph-name="thumb-down-mask" unicode="&#xe858;" d="M-43 448c1-33 21-59 36-76-6-14-8-43-8-65 2-67 48-113 118-113 50 0 156 0 214 1-17-77-36-220 1-287 18-33 54-58 86-58 57 0 60 27 75 67 89 236 222 371 317 371 10 0 19 5 24 14 2 4 44 71 44 219 0 150-59 244-61 247-5 7-13 11-22 12-116 8-148 18-165 32-32 26-34 38-291 38-164 0-266-31-281-108-4-19-2-44-1-57-21-16-54-47-56-95-1-20 7-36 10-49-16-18-41-51-40-93z" horiz-adv-x="910" />

<glyph glyph-name="spin5" unicode="&#xe859;" d="M462 850c-6 0-11-5-11-11l0-183 0 0c0-6 5-11 11-11l69 0c1 0 1 0 1 0 7 0 12 5 12 11l0 183 0 0c0 6-5 11-12 11l-69 0c0 0 0 0-1 0z m250-47c-4 1-8-2-10-5l-91-158 0 0c-4-6-2-13 4-16l60-34c0-1 0-1 0-1 6-3 13-1 16 4l91 158c3 6 2 13-4 16l-61 35c-1 1-3 1-5 1z m-428-2c-2 0-4-1-6-2l-61-35c-5-3-7-10-4-16l91-157c0 0 0 0 0 0 3-6 10-8 16-5l61 35c5 4 7 11 4 16l-91 157c0 1 0 1 0 1-2 4-6 6-10 6z m620-163c-2 0-4 0-6-1l-157-91c0 0 0 0 0 0-6-3-8-10-5-16l35-61c4-5 11-7 16-4l157 91c1 0 1 0 1 0 6 3 7 11 4 16l-35 61c-2 4-6 6-10 5z m-810-4c-5 0-9-2-11-6l-35-61c-3-5-1-12 4-15l158-91 0 0c6-4 13-2 16 4l35 60c0 0 0 0 0 0 3 6 1 13-4 16l-158 91c-2 1-4 2-5 2z m712-235l0 0c-6 0-11-5-11-11l0-69c0-1 0-1 0-1 0-7 5-12 11-12l183 0 0 0c6 0 11 5 11 12l0 69c0 0 0 0 0 1 0 6-5 11-11 11l-183 0z m-794-5l0 0c-7 0-12-5-12-12l0-69c0 0 0 0 0-1 0-6 5-11 12-11l182 0 0 0c6 0 11 5 11 11l0 69c0 1 0 1 0 1 0 7-5 12-11 12l-182 0z m772-153c-4 0-8-2-10-6l-34-60c-1 0-1 0-1 0-3-6-1-13 4-16l158-91c6-3 13-1 16 4l35 61c3 5 1 12-4 15l-158 92 0 0c-2 1-4 1-6 1z m-566-5c-1 0-3 0-5-1l-157-91c0 0-1 0-1 0-5-3-7-10-4-16l35-61c3-5 10-7 16-4l157 91c0 0 0 0 0 0 6 3 8 10 5 16l-35 61c-3 3-7 6-11 5z m468-121c-2 0-4 0-6-1l-61-35c-5-4-7-11-4-16l91-157c0-1 0-1 0-1 3-6 11-7 16-4l61 35c5 3 7 10 4 16l-91 157c0 0 0 0 0 0-2 4-6 6-10 6z m-367-2c-4 0-8-2-10-6l-91-158c-3-6-1-13 4-16l61-35c5-3 12-1 15 4l92 158 0 0c3 6 1 13-5 16l-60 35c0 0 0 0 0 0-2 1-4 1-6 2z m149-58c-7 0-12-5-12-11l0-183 0 0c0-6 5-11 12-11l69 0c0 0 0 0 1 0 6 0 11 5 11 11l0 183 0 0c0 6-5 11-11 11l-69 0c-1 0-1 0-1 0z" horiz-adv-x="1000" />

<glyph glyph-name="pencil-circ" unicode="&#xe85a;" d="M500 850c-276 0-500-224-500-500 0-276 224-500 500-500 276 0 500 224 500 500 0 276-224 500-500 500z m0-938c-241 0-437 197-437 438 0 241 196 438 437 438s438-197 438-438c0-241-197-438-438-438z m229 669c-19 17-39 26-58 26-32 0-55-19-61-26-10-9-318-318-318-318-3-3-3-3-3-6-10-29-45-142-45-142-4-6 0-12 3-16s9-6 13-6 3 0 6 0c0 0 119 38 138 45 3 0 7 3 7 3 13 13 299 296 318 315 19 23 29 45 29 64 0 23-10 42-29 61z m-447-453c10 36 26 81 32 106 10-3 26-9 45-29 13-16 23-29 26-41-23-7-71-23-103-36z m129 61c-7 13-13 26-29 42-16 16-36 26-48 32 57 55 205 203 270 267 9-3 29-10 48-29 19-19 26-42 26-48-65-61-209-206-267-264z m295 293c-9 9-16 26-32 42-16 16-32 25-45 32l4 3c0 0 16 16 38 16 13 0 23-6 35-16 13-13 20-26 20-39 0-12-7-25-20-38z" horiz-adv-x="1000" />

<glyph glyph-name="logo-my-fashion" unicode="&#xe85b;" d="M1415 452l-8-32h-77l-42-195h-58l77 359c-2 0-4 0-5 0-2 0-4 0-6 0-10 0-21-3-31-6-10-4-19-11-27-20-8-8-14-20-18-34-5-15-7-33-7-55 0-11 1-20 3-26 2-7 4-12 7-14-16 0-28 4-36 11-8 8-12 22-12 42 0 17 3 33 10 49 7 16 17 31 31 43 15 13 32 23 54 31 21 7 47 11 76 11 10 0 18 0 25-1 8 0 15-1 23-2 7-1 15-1 22-2 8-1 16-1 25-1 8 0 17 0 25 1 7 1 15 3 22 5-3-12-6-22-11-29-4-7-8-12-13-16-5-4-11-6-16-7-6-2-12-2-18-2-11 0-23 1-34 3-11 2-23 4-34 7l-26-120h79z m759 74c9 0 18 3 25 10s10 15 10 25c0 9-3 17-10 24-7 7-16 11-25 11-10 0-18-4-25-11-6-7-10-15-10-24 0-10 4-18 10-25 7-7 15-10 25-10z m475-263c-1-10-3-18-6-23-4-6-8-11-13-13-4-3-9-5-14-7-5-1-9-1-13-1-13 0-24 5-32 15-9 10-13 25-13 44 0 11 1 23 4 36 3 12 6 25 9 37 3 13 6 25 8 36 3 12 4 22 4 32 0 9-1 16-4 21-3 5-10 8-19 8-21 0-41-18-58-55l-36-168h-53l36 167c-14-6-29-11-44-13-2-23-6-44-12-64-6-19-14-36-24-50-9-15-21-26-34-34-14-8-28-12-44-12-12 0-23 1-33 4-10 3-18 8-26 15-7 6-13 15-17 26-1 2-2 5-3 8-1-3-3-6-4-8-9-13-17-23-25-29-8-7-15-11-23-13-7-2-13-3-19-3-9 0-16 1-22 5-6 3-11 7-15 12-3 6-6 12-7 19-1 3-2 7-2 11 0-1-1-2-2-2-8-13-16-23-24-30-8-6-15-10-22-12-7-2-13-3-18-3-18 0-31 6-39 17-8 11-12 25-12 42 0 12 2 24 4 37 3 12 6 25 9 37 3 12 6 24 9 35 2 12 4 22 4 32 0 9-2 16-5 21-3 5-9 8-19 8-22 0-41-18-58-55l-36-168h-53l15 66c-3-2-5-6-8-7-11-9-23-17-34-24-4-7-9-14-15-19-5-5-11-10-18-13-6-3-13-6-20-7-7-1-13-2-19-2-13 0-25 2-35 6-9 4-17 9-23 15-6 6-9 11-12 17-7-9-14-17-20-22-8-7-16-11-23-13-7-2-13-3-19-3-12 0-21 4-29 12-7 8-12 21-13 39-8-14-19-26-34-36-14-10-29-15-46-15-8 0-17 1-25 4-8 3-15 8-21 15-7 7-12 16-16 26-3 11-5 24-5 40 0 11 1 24 4 38 2 14 6 27 11 41 5 14 11 27 19 39 8 13 16 24 26 34 10 9 21 17 34 23 12 6 26 8 40 8 9 0 17-2 26-6 9-4 15-11 17-22l6 24h53l-39-178c-1-7-2-14-2-22 0-6 1-12 3-17 2-5 6-7 13-7 8 0 17 5 26 15 2 3 5 7 7 11 0 0 0 1 0 1 0 12 3 23 9 31 6 9 12 15 19 18 15 26 27 52 37 78 10 26 20 52 28 78l55 10c2-33 3-61 5-82 1-21 3-38 4-51 1-14 2-24 3-33 1-8 1-16 1-25 0-3 0-6 0-9s-1-6-1-9c7 4 13 8 19 12 7 4 12 8 17 12l57 267 55 7-31-145c6 10 13 17 20 23 6 5 13 9 19 12 6 3 12 5 17 6 6 1 11 2 15 2 11 0 19-2 26-5 7-3 13-8 17-13 4-6 7-12 9-19 1-7 2-15 2-23 0-11-1-24-4-36-2-13-5-25-8-38-3-12-6-24-9-36-3-12-4-23-4-34 0-7 1-13 3-18 2-5 7-8 13-8 16 0 33 19 49 57l36 168h53l-38-178c-2-7-3-14-3-22 0-6 1-12 3-17 2-5 7-7 13-7 9 0 17 5 26 15 7 8 13 19 20 32 0 9 1 19 2 31 2 13 5 26 9 40 4 14 10 27 17 40 7 13 15 25 25 36 11 10 23 19 36 25 14 6 30 9 48 9 21 0 36-7 46-21 9-14 13-35 14-62 16 0 32 3 48 9l15 70h53l-9-39c7 10 14 18 20 24 7 5 14 9 20 12 6 3 12 5 17 6 5 1 10 2 15 2 10 0 19-2 26-5s13-8 17-13c4-6 7-12 9-19 1-7 2-15 2-22 0-12-1-24-4-37-2-13-5-25-8-37-4-13-7-25-9-36-3-12-4-23-4-32 0-19 6-28 19-28 5 0 10 1 16 4z m-1064 172c-1 6-4 12-8 17-4 4-10 7-18 7-15 0-27-6-39-16-11-11-20-23-28-39-8-15-13-31-17-48-4-17-6-32-6-45 0-20 3-34 9-41 6-7 14-11 24-11 6 0 11 1 17 4 6 3 12 7 17 12 6 5 11 12 15 19 4 7 7 14 9 22l25 119z m178-126c0 8 0 15-1 21-1 6-1 14-2 23-1 10-3 22-4 36-1 15-3 33-4 56-5-20-11-38-18-56-7-18-15-37-24-55 2-2 4-5 5-7 1-3 2-7 2-11 0-8-2-15-7-19-5-5-10-7-15-7-4 0-8 2-10 5-1-1-1-2-2-3 1-10 4-18 8-23 6-7 14-11 26-11 13 0 24 4 33 12 8 8 13 21 13 39z m595 90c0 9 2 15 6 19 4 4 10 7 16 7-1 13-4 21-10 26-5 5-12 8-21 8-9 0-17-3-25-8-7-5-14-11-20-19-6-8-12-17-16-27-5-11-9-21-12-32-3-11-6-22-7-32-2-11-3-21-3-30 0-18 4-31 10-40 7-8 18-12 35-12 7 0 15 3 22 8 8 5 15 13 21 23 6 11 11 23 16 37 4 15 7 32 9 50-9 0-15 2-17 6-3 4-4 9-4 16z m-1385 24c38-47 36-121-4-166-40-45-77-130-83-190-6-59-60-111-120-114-60-4-147-38-193-76-47-38-121-36-166 4-45 40-130 77-190 83-59 6-111 60-114 120-4 60-38 147-76 193-38 47-36 121 4 166 40 45 77 130 83 190 6 59 60 111 120 114 60 4 147 38 193 76 47 38 121 36 166-4 45-40 130-77 190-83 59-6 111-60 114-120 4-60 38-147 76-193z m-172 91h-53l-36-170c-4-19-11-33-22-43-11-10-21-15-31-15-7 0-13 2-17 7-5 5-7 13-7 23 0 6 1 12 2 18l39 180h-54l-36-170c0-1 0-2 0-2-17-38-33-56-49-56-6 0-11 2-13 7-2 5-3 11-3 19 0 10 1 22 4 34 3 12 6 24 9 36 3 13 6 25 8 38 3 13 4 25 4 36 0 8 0 16-2 23-2 8-4 14-9 19-4 6-10 10-17 13-7 4-16 5-26 5-5 0-10 0-16-1-5-1-11-3-17-6-6-3-13-8-19-14-7-6-13-13-20-23-1 12-6 23-15 32-8 8-21 12-38 12-9 0-19-2-30-6-12-4-24-14-36-30l8 34h-54l-56-266h53l36 171c9 19 17 34 25 43 8 9 18 14 29 14 7 0 12-2 16-6 4-4 6-11 6-21 0-3-1-6-1-10 0-4-1-9-2-13l-38-178h54l36 171c9 20 17 34 25 43 8 9 18 14 29 14 9 0 15-3 18-8 4-5 5-12 5-21 0-10-1-20-4-32-2-11-5-23-8-35-4-13-7-25-9-38-3-13-4-25-4-37 0-17 4-31 11-42 8-12 21-18 40-18 5 0 11 1 18 3 7 2 14 7 22 13 8 7 16 16 25 30 1 2 3 4 4 6 1-3 1-7 2-10 3-9 8-16 13-22 5-6 11-11 18-14 8-4 15-6 23-6 9 0 19 3 29 8 9 4 19 12 27 22l-6-33c-10-4-20-9-30-14s-20-11-28-18c-8-7-14-14-20-21-5-8-7-16-7-25 0-17 5-30 17-37 11-7 25-11 41-11 9 0 17 1 24 4 7 2 13 6 19 13 6 7 11 16 16 27 5 12 9 27 13 47l65 307z m-115-292c-20-8-34-18-45-28s-15-20-15-30c0-6 2-10 5-14 4-4 9-6 15-6 10 0 17 5 23 17l14 44 3 17z m-60-58c0-6 2-10 5-14 4-4 9-6 15-6 10 0 17 5 23 17l14 44 3 17c-20-8-34-18-45-28s-15-20-15-30z" horiz-adv-x="2656" />

<glyph glyph-name="logo-my-food" unicode="&#xe85c;" d="M1336 452h79l-8-32h-77l-42-195h-58l77 359c-2 0-4 0-5 0-2 0-4 0-6 0-10 0-21-3-31-6-10-4-19-11-27-20-8-8-14-20-18-34-5-15-7-33-7-55 0-11 1-20 3-26 2-7 4-12 7-14-16 0-28 4-36 11-8 8-12 22-12 42 0 17 3 33 10 49 7 16 17 31 31 43s32 23 54 31 47 11 76 11c10 0 18 0 25-1 8 0 15-1 23-2 7-1 15-1 22-2 8-1 16-1 25-1 8 0 17 0 25 1 7 1 15 3 22 5-3-12-6-22-11-29-4-7-8-12-13-16-5-4-11-6-16-7-6-2-12-2-18-2-11 0-23 1-34 3-11 2-23 4-34 7l-26-120z m740-193c2 1 6 2 9 3-4-17-10-28-17-34-7-6-15-9-24-9-12 0-22 4-29 12-8 8-12 21-14 39-8-14-19-26-33-36-14-10-30-15-46-15-9 0-17 1-25 4-8 3-15 8-22 15-6 7-11 16-15 26-4 11-6 24-6 40 0 11 2 24 4 38 3 14 7 27 11 41 1 2 2 4 3 5-13-4-26-7-40-9-2-23-6-44-12-64-6-19-14-36-24-50-9-15-21-26-34-34-14-8-28-12-44-12-12 0-23 1-33 4-10 3-18 8-26 15s-13 15-17 26c-4 10-6 23-6 38 0 10 0 22 2 35 2 13 5 26 9 40 1 4 3 7 4 11-13-4-26-7-40-9-1-23-5-44-11-64-6-19-14-36-24-50-10-15-21-26-35-34-13-8-28-12-44-12-11 0-22 1-32 4-10 3-19 8-26 15s-13 15-17 26c-5 10-7 23-7 38 0 10 1 22 3 35 2 13 5 26 9 40 4 14 10 27 16 40 7 13 16 25 26 36 11 10 23 19 36 25 14 6 30 10 48 10 21 0 36-8 45-22 9-14 14-35 14-62 18 0 34 4 50 10 1 1 1 2 2 3 7 13 15 25 25 36 11 10 23 19 36 25 14 6 30 10 48 10 21 0 36-8 46-22 9-14 13-35 14-62 18 0 35 4 51 11 2 3 3 5 4 7 8 13 17 24 27 34 10 9 21 17 33 23 13 6 26 9 41 9 9 0 17-2 26-6 8-4 14-12 17-23l26 124 55 7-61-284c-1-4-1-8-2-11s0-8 0-11c0-8 1-14 4-18 2-5 7-7 14-7 3 0 5 0 8 0z m-511 140c0 9 2 15 6 19 4 4 10 7 16 8-1 12-5 20-10 25-5 5-13 8-21 8-9 0-17-3-25-8-7-5-14-11-20-19-6-8-12-17-17-27-4-11-8-21-11-32-4-11-6-22-8-32-1-11-2-21-2-30 0-18 3-31 10-40 6-8 18-12 34-12 8 0 16 3 23 8 8 5 15 13 21 23 6 11 11 23 15 37 5 15 8 32 10 50-9 0-15 2-17 6s-4 9-4 16z m220 0c0 9 2 15 6 19 4 4 10 7 16 8-1 12-4 20-10 25-5 5-12 8-21 8-9 0-17-3-25-8-7-5-14-11-20-19-6-8-12-17-16-27-5-11-9-21-12-32-3-11-6-22-7-32-2-11-3-21-3-30 0-18 4-31 10-40 7-8 18-12 35-12 7 0 15 3 22 8 8 5 15 13 21 23 6 11 11 23 16 37 4 15 7 32 9 50-9 0-15 2-17 6s-4 9-4 16z m242 36c-1 6-4 11-8 16-4 5-11 8-19 8-14 0-27-6-38-16s-21-23-28-39c-8-15-14-31-18-48-4-17-5-32-5-45 0-20 2-34 8-41 6-7 14-11 25-11 5 0 11 1 17 4 6 3 12 7 17 12 5 5 10 12 15 19 4 7 7 14 8 22l26 119z m-1054-12c38-47 36-121-4-166-40-45-77-130-83-190-6-59-60-111-120-114-60-4-147-38-193-76-47-38-121-36-166 4-45 40-130 77-190 83-59 6-111 60-114 120-4 60-38 147-76 193-38 47-36 121 4 166 40 45 77 130 83 190 6 59 60 111 120 114 60 4 147 38 193 76 47 38 121 36 166-4 45-40 130-77 190-83 59-6 111-60 114-120 4-60 38-147 76-193z m-172 91h-53l-36-170c-4-19-11-33-22-43s-21-15-31-15c-7 0-13 2-17 7-5 5-7 13-7 23 0 6 1 12 2 18l39 180h-54l-36-170c0-1 0-2 0-2-17-38-33-56-49-56-6 0-11 2-13 7-2 5-3 11-3 19 0 10 1 22 4 34 3 12 6 24 9 36 3 13 6 25 8 38 3 13 4 25 4 36 0 8 0 16-2 23-2 8-4 14-9 19-4 6-10 10-17 13-7 4-16 5-26 5-5 0-10 0-16-1-5-1-11-3-17-6-6-3-13-8-19-14-7-6-13-13-20-23-1 12-6 23-15 32-8 8-21 12-38 12-9 0-19-2-30-6-12-4-24-14-36-30l8 34h-54l-56-266h53l36 171c9 19 17 34 25 43 8 9 18 14 29 14 7 0 12-2 16-6 4-4 6-11 6-21 0-3-1-6-1-10 0-4-1-9-2-13l-38-178h54l36 171c9 20 17 34 25 43 8 9 18 14 29 14 9 0 15-3 18-8 4-5 5-12 5-21 0-10-1-20-4-32-2-11-5-23-8-35-4-13-7-25-9-38-3-13-4-25-4-37 0-17 4-31 11-42 8-12 21-18 40-18 5 0 11 1 18 3 7 2 14 7 22 13 8 7 16 16 25 30 1 2 3 4 4 6 1-3 1-7 2-10 3-9 8-16 13-22 5-6 11-11 18-14 8-4 15-6 23-6 9 0 19 3 29 8 9 4 19 12 27 22l-6-33c-10-4-20-9-30-14-10-5-20-11-28-18-8-7-14-14-20-21-5-8-7-16-7-25 0-17 5-30 17-37 11-7 25-11 41-11 9 0 17 1 24 4 7 2 13 6 19 13 6 7 11 16 16 27 5 12 9 27 13 47l65 307z m-115-292c-20-8-34-18-45-28-10-10-15-20-15-30 0-6 2-10 5-14 4-4 9-6 15-6 10 0 17 5 23 17l14 44 3 17z m-60-58c0-6 2-10 5-14 4-4 9-6 15-6 10 0 17 5 23 17l14 44 3 17c-20-8-34-18-45-28-10-10-15-20-15-30z" horiz-adv-x="2113" />

<glyph glyph-name="logo-my-sunscape" unicode="&#xe85d;" d="M1408 554c0-16-4-29-12-39-8-10-18-15-30-15-5 0-8 1-11 3-3 2-6 4-9 8 7 4 13 11 17 19 5 9 7 18 7 27 0 5-1 10-2 15-1 5-4 9-7 13-3 4-8 7-14 9-5 2-12 3-21 3-19 0-34-4-46-14-12-9-18-22-18-40 0-14 3-25 9-34 6-10 13-19 22-27 9-9 18-17 28-25 11-9 20-18 29-29 9-11 16-23 22-37 6-14 9-31 9-51 0-22-4-40-11-56-7-16-16-29-29-40-12-10-26-18-42-24-16-5-32-7-50-7-13 0-27 1-40 4-12 3-24 9-34 16-10 7-18 16-24 27-7 12-10 25-10 41 0 14 3 27 8 38 4 11 10 20 18 27 7 7 15 12 24 16 9 4 17 6 25 6 9 0 17-3 25-8 7-5 11-14 13-27-7 0-14-1-22-3-7-2-14-5-20-9-6-4-10-9-14-16-4-7-6-15-6-24 0-8 1-16 4-23 3-6 7-12 12-16 5-5 11-8 17-11 7-2 13-3 20-3 9 0 17 1 25 4 9 3 16 8 23 14 6 7 11 14 16 24 4 9 6 20 6 33 0 15-3 29-8 41-5 12-12 23-20 33-8 11-17 21-26 30-9 10-18 20-26 29-8 10-15 20-20 31-5 10-8 22-8 35 0 14 3 27 10 38s14 22 25 30c11 8 24 15 38 19 15 5 31 7 48 7 5 0 13 0 22-2 9-1 18-3 27-8 8-4 16-10 22-18 6-9 9-20 9-34z m1315-114c3-11 5-24 5-40 0-11-1-24-3-37-1-13-4-27-8-40-4-14-9-27-16-39-6-13-14-24-24-33-9-10-20-18-33-23-12-6-27-9-43-9-9 0-17 2-24 7s-13 11-18 19l-30-141-55-13 34 161c-6-7-11-13-16-17-8-7-16-11-23-13-7-2-14-3-19-3-12 0-21 4-29 12-7 8-12 21-13 39-8-14-19-26-34-36-14-10-29-15-46-15-8 0-17 1-25 4-8 3-15 8-21 15-7 7-12 16-16 26-1 6-3 11-4 18-1-1-1-2-2-3-10-12-20-22-32-31-12-9-25-16-38-21-13-5-27-8-41-8-10 0-20 1-29 5-9 3-18 8-25 14-7 7-13 16-18 26-3 8-5 17-6 27-3-3-6-5-9-7-12-9-23-17-34-24-4-7-9-14-15-19-6-5-12-10-18-13-7-3-13-6-20-7-7-1-13-2-19-2-14 0-25 2-35 6-9 4-17 9-24 15-5 5-9 11-11 17-7-10-14-17-20-23-8-6-16-10-23-12-6-2-12-3-18-3-18 0-31 6-39 17-7 11-11 25-11 42 0 12 1 24 4 37 2 12 5 25 8 37 4 12 7 24 9 35 3 12 4 22 4 32 0 9-1 16-5 21-3 5-9 8-18 8-22 0-41-18-58-55l-37-168h-52l6 29c-5-7-11-15-16-19-8-7-15-11-23-13-7-2-13-3-19-3-11 0-20 4-28 12-8 8-12 20-14 38-10-18-21-30-34-38-12-8-24-12-36-12-8 0-16 2-23 5-7 3-13 8-18 14s-10 13-13 22c-3 8-4 18-4 29 0 8 1 17 3 26l36 168h53l-38-178c-2-5-3-10-3-16 0-10 3-18 7-23 5-5 10-7 17-7 10 0 21 4 31 14 11 10 18 24 22 42l36 168h53l-38-178c-2-7-3-14-3-23 0-6 1-11 3-16 2-5 7-7 13-7 9 0 17 4 26 15 8 9 16 22 23 39l37 170h53l-9-39c7 10 14 18 20 24 7 5 13 9 19 12 6 3 12 5 18 6 5 1 10 2 15 2 10 0 19-2 26-5s13-8 17-13c4-6 7-12 8-19 2-7 3-15 3-23 0-11-1-24-4-36-3-13-6-25-9-37-3-13-6-25-8-37-3-12-4-23-4-33 0-8 1-14 3-19 2-5 6-7 12-7 11 0 22 8 33 25 0 1 0 1 0 2 0 12 3 23 9 31 5 9 12 15 19 18 15 26 27 52 37 78s19 52 27 78l56 10c1-33 3-61 5-82 1-21 3-38 4-51 1-14 2-24 3-33 0-8 1-16 1-25 0-3 0-6 0-9-1-3-1-6-1-9 6 4 13 8 19 12 5 3 9 6 13 9 1 7 2 16 3 25 2 13 5 26 10 39 4 14 10 27 17 41 7 13 15 25 26 35 10 10 21 19 35 25 13 6 28 10 45 10 18 0 32-4 41-13 9-8 14-20 14-37 0-13-2-23-7-32-5-8-12-13-21-13-7 0-13 4-17 11 5 3 8 8 11 15 3 7 5 14 5 20 0 6-2 11-6 15-4 4-10 6-18 6-12 0-23-5-33-15-10-10-18-23-25-38-7-15-13-31-17-48s-5-33-5-48c0-18 3-32 10-40 7-8 19-12 36-12 19 0 36 4 51 14 13 7 25 18 35 33 0 11 1 23 4 36 2 14 6 27 11 41 5 14 11 27 19 39 7 13 16 24 26 34 10 9 21 17 33 23 13 6 26 8 41 8 9 0 17-2 26-6 9-4 15-11 17-22l6 24h53l-39-178c-1-7-2-14-2-22 0-6 1-12 3-17 2-5 6-7 13-7 8 0 17 5 25 16 9 9 17 23 24 40l40 191h53l-9-41c9 7 18 12 28 16 10 4 20 7 32 7 9 0 17-2 25-5 8-3 14-8 20-15 6-7 10-16 13-28z m-738-131c0 8-1 15-1 21-1 6-1 14-3 23-1 10-2 22-3 36-2 15-3 33-4 56-5-20-11-38-18-56s-15-37-24-55c2-2 3-5 5-7 1-3 2-7 2-11 0-8-2-15-7-19-5-5-10-7-15-7-4 0-8 2-11 5 0-1 0-2-1-3 1-10 3-18 8-23 6-7 14-11 26-11 13 0 24 4 33 12 8 8 13 21 13 39z m448 126c-1 6-4 12-8 17-4 4-10 7-18 7-15 0-27-6-39-16-11-11-20-23-28-39-8-15-13-31-17-48-4-17-6-32-6-45 0-20 3-34 9-41 6-7 14-11 24-11 6 0 11 1 17 4 6 3 12 7 17 12 6 5 11 12 15 19 4 7 7 14 9 22l25 119z m243-36c0 10-1 19-3 26-2 7-5 13-9 17-3 4-7 7-11 9-4 1-9 2-13 2-8 0-16-2-23-6-7-5-13-11-19-19l-34-157c4-7 9-11 14-14 6-3 11-4 15-4 16 0 29 5 39 16 11 10 19 23 26 38s11 32 14 48c3 17 4 31 4 44z m167-140c23 0 44 8 62 25-2-13-6-24-11-32-6-8-13-15-20-20-8-5-17-8-26-10-10-2-20-3-31-3-10 0-20 1-29 5-9 3-17 8-25 14-7 7-13 16-17 26-4 11-6 24-6 39 0 10 1 21 3 34 2 13 5 26 9 40 5 14 11 27 18 41 7 13 15 25 25 35 10 10 21 19 34 25 13 6 27 10 44 10 7 0 14-1 21-3 6-1 12-4 17-8 6-4 10-10 13-17 3-7 5-16 5-27 0-29-12-53-35-72-23-18-55-30-96-34-1-3-1-5-1-8 0-3 0-5 0-8 0-18 4-31 10-40 7-8 19-12 36-12z m-42 89c29 4 52 15 70 31 17 16 26 36 26 60 0 6-1 11-4 16-2 4-7 7-16 7-9 0-18-4-27-10-8-7-16-16-22-27-6-11-12-23-17-37-4-13-8-27-10-40z m-1828 75c38-47 36-121-4-166-40-45-77-130-83-190-6-59-60-111-120-114-60-4-147-38-193-76-47-38-121-36-166 4-45 40-130 77-190 83-59 6-111 60-114 120-4 60-38 147-76 193-38 47-36 121 4 166 40 45 77 130 83 190 6 59 60 111 120 114 60 4 147 38 193 76 47 38 121 36 166-4 45-40 130-77 190-83 59-6 111-60 114-120 4-60 38-147 76-193z m-172 91h-53l-36-170c-4-19-11-33-22-43s-21-15-31-15c-7 0-13 2-17 7-5 5-7 13-7 23 0 6 1 12 2 18l39 180h-54l-36-170c0-1 0-2 0-2-17-38-33-56-49-56-6 0-11 2-13 7-2 5-3 11-3 19 0 10 1 22 4 34 3 12 6 24 9 36 3 13 6 25 8 38 3 13 4 25 4 36 0 8 0 16-2 23-2 8-4 14-9 19-4 6-10 10-17 13-7 4-16 5-26 5-5 0-10 0-16-1-5-1-11-3-17-6-6-3-13-8-19-14-7-6-13-13-20-23-1 12-6 23-15 32-8 8-21 12-38 12-9 0-19-2-30-6-12-4-24-14-36-30l8 34h-54l-56-266h53l36 171c9 19 17 34 25 43 8 9 18 14 29 14 7 0 12-2 16-6 4-4 6-11 6-21 0-3-1-6-1-10 0-4-1-9-2-13l-38-178h54l36 171c9 20 17 34 25 43 8 9 18 14 29 14 9 0 15-3 18-8 4-5 5-12 5-21 0-10-1-20-4-32-2-11-5-23-8-35-4-13-7-25-9-38-3-13-4-25-4-37 0-17 4-31 11-42 8-12 21-18 40-18 5 0 11 1 18 3 7 2 14 7 22 13 8 7 16 16 25 30 1 2 3 4 4 6 1-3 1-7 2-10 3-9 8-16 13-22 5-6 11-11 18-14 8-4 15-6 23-6 9 0 19 3 29 8 9 4 19 12 27 22l-6-33c-10-4-20-9-30-14-10-5-20-11-28-18-8-7-14-14-20-21-5-8-7-16-7-25 0-17 5-30 17-37 11-7 25-11 41-11 9 0 17 1 24 4 7 2 13 6 19 13 6 7 11 16 16 27 5 12 9 27 13 47l65 307z m-175-350c0-6 2-10 5-14 4-4 9-6 15-6 10 0 17 5 23 17l14 44 3 17c-20-8-34-18-45-28-10-10-15-20-15-30z" horiz-adv-x="2930" />

<glyph glyph-name="logo-my-start" unicode="&#xe85e;" d="M1408 554c0-16-4-29-12-39-8-10-18-15-30-15-5 0-8 1-11 3-3 2-6 4-9 8 7 4 13 11 17 19 5 9 7 18 7 27 0 5-1 10-2 15-1 5-4 9-7 13-3 4-8 7-14 9-5 2-12 3-21 3-19 0-34-4-46-14-12-9-18-22-18-40 0-14 3-25 9-34 6-10 13-19 22-27 9-9 18-17 28-25 11-9 20-18 29-29 9-11 16-23 22-37 6-14 9-31 9-51 0-22-4-40-11-56-7-16-16-29-29-40-12-10-26-18-42-24-16-5-32-7-50-7-13 0-27 1-40 4-12 3-24 9-34 16-10 7-18 16-24 27-7 12-10 25-10 41 0 14 3 27 8 38 4 11 10 20 18 27 7 7 15 12 24 16 9 4 17 6 25 6 9 0 17-3 25-8 7-5 11-14 13-27-7 0-14-1-22-3-7-2-14-5-20-9-6-4-10-9-14-16-4-7-6-15-6-24 0-9 1-16 4-23 3-6 7-12 12-16 5-5 11-8 17-11 7-2 13-3 20-3 9 0 17 1 25 4 9 3 16 8 23 14 6 7 11 14 16 24 4 9 6 20 6 33 0 15-3 29-8 41-5 12-12 23-20 33-8 11-17 21-26 30-9 10-18 20-26 29-8 10-15 20-20 31-5 10-8 22-8 35 0 14 3 27 10 38s14 22 25 30c11 8 24 15 38 19 15 5 31 7 48 7 5 0 13 0 22-2 9-1 18-3 27-8 8-4 16-10 22-18 6-9 9-20 9-34z m558-108c-2-4-5-8-8-10-3-3-7-5-10-6-4-1-7-1-9-1-3 0-6 0-7 2-2 1-3 3-5 4-2 2-3 3-5 5-3 1-6 2-9 2-8 0-16-2-25-8-8-5-16-10-24-16l-41-193h-53l7 29c-6-7-11-15-17-19-7-7-15-11-22-13-7-2-14-3-19-3-12 0-21 4-29 12-8 8-12 21-13 39-8-14-20-26-34-36-14-10-30-15-46-15-9 0-17 1-25 4-8 3-15 8-22 15-6 7-11 16-15 26-1 4-2 7-3 11-1-2-3-5-4-7-9-12-18-22-26-30s-17-12-25-15-15-4-21-4c-10 0-18 2-24 5-7 3-12 8-15 13-4 5-7 12-8 19-2 7-3 14-3 22 0 6 1 13 2 20 1 7 2 13 3 19l32 150h-17l3 16h18l16 73 54 8-17-81h40l-3-16h-41l-34-160c-1-3-2-7-3-11-1-5-1-9-1-13 0-6 1-11 4-17 2-5 8-7 16-7 9 0 19 5 29 15 8 8 15 18 22 30 0 12 2 25 4 38 3 14 7 27 12 41 5 14 11 27 19 39 7 13 16 24 26 34 10 9 21 17 33 23 13 6 26 8 41 8 8 0 17-2 26-6 8-4 14-11 17-22l5 24h53l-38-178c-2-7-3-14-3-23 0-6 1-11 4-16 2-5 6-7 13-7 8 0 17 4 25 15 8 9 16 22 24 39l36 170h53l-10-42c5 5 10 12 16 17 5 6 11 11 16 15 6 4 12 8 18 11 7 2 14 4 21 4 10 0 18-3 23-8 4-4 6-10 6-17 0-7-1-12-3-17z m-264-11c-1 6-4 12-8 17-4 4-10 7-18 7-15 0-28-6-39-16-11-11-21-23-28-39-8-15-14-31-18-48-3-17-5-32-5-45 0-20 3-34 9-41 6-7 14-11 24-11 5 0 11 1 17 4 6 3 12 7 17 12 6 5 10 12 15 19 4 7 7 14 9 22l25 119z m354 48l17 81-54-8-16-73h-18l-4-16h18l-32-150c-1-6-2-12-3-17s0-11 0-16c0-19 3-34 11-47 8-12 19-18 34-18 10 0 18 3 25 9 7 6 13 17 17 34-4-1-7-2-9-3-3 0-6 0-8 0-7 0-12 2-15 7-3 5-4 11-4 17 0 7 1 16 3 24l34 160h40l4 16h-40z m-1083-60c38-47 36-121-4-166-40-45-77-130-83-190-6-59-60-111-120-114-60-4-147-38-193-76-47-38-121-36-166 4-45 40-130 77-190 83-59 6-111 60-114 120-4 60-38 147-76 193-38 47-36 121 4 166 40 45 77 130 83 190 6 59 60 111 120 114 60 4 147 38 193 76 47 38 121 36 166-4 45-40 130-77 190-83 59-6 111-60 114-120 4-60 38-147 76-193z m-172 91h-53l-36-170c0-2-1-4-1-6-4-15-11-28-21-37-11-10-21-15-31-15-4 0-7 0-10 2s-6 3-8 5c-5 5-8 13-8 23 0 0 0 0 0 0 0 6 2 11 3 17 0 0 0 0 0 1l40 180h-54l-36-170c0-1 0-2 0-2-17-37-33-56-49-56-6 0-11 2-13 7-2 5-3 11-3 19 0 0 0 0 0 0 0 10 1 22 4 34 3 12 6 24 9 36 3 13 6 25 8 38 3 13 4 25 4 36v0c0 8 0 16-2 23-2 8-4 14-9 19-4 6-10 10-17 13-1 1-3 2-5 3-6 1-13 2-21 2-5 0-10 0-16-1-5-1-11-3-17-6-6-3-13-8-19-14-7-6-13-13-20-23-1 12-6 23-15 32-8 8-21 12-38 12-9 0-19-2-30-6-12-4-24-14-36-30l8 34h-54l-56-266h53l36 171c1 2 2 4 3 5 7 17 15 29 22 38 8 9 18 14 29 14 7 0 14-2 18-6 3-4 7-11 7-21 0 0 0 0 0 0 0-3-2-6-2-10 0-4-2-8-3-13 0 0-1 0-1 0l-38-178h54l36 171c9 20 17 34 25 43 8 9 18 14 29 14 9 0 15-3 18-8 4-5 5-12 5-21 0 0 0 0 0 0 0-10-1-20-4-32-2-11-5-23-8-35-4-13-7-25-9-38-1-3-1-6-2-10-1-9-2-18-2-27v0c0-12 2-24 6-33 2-3 4-6 5-9 8-12 21-18 40-18 5 0 11 1 18 3 7 2 14 7 22 13 8 7 16 16 25 30 1 2 3 4 4 6 1-3 1-7 2-10 3-9 8-16 13-22 5-6 11-11 18-14 8-4 15-6 23-6 9 0 19 3 29 8 2 1 4 2 7 4 7 4 14 10 20 18l-6-33c-10-4-20-9-30-14-10-5-20-11-28-18-8-7-14-14-20-21-5-8-7-16-7-25 0 0 0 0 0 0 0-17 5-30 17-37 11-7 25-11 41-11 9 0 17 1 24 4 7 2 13 6 19 13 6 6 11 16 16 27 5 12 9 27 13 47l65 307z m-115-292c-20-8-34-18-45-28-10-10-15-20-15-30 0-6 2-10 5-14 4-4 9-6 15-6 10 0 17 5 23 17l14 44 3 17z m-60-58c0-6 2-10 5-14 4-4 9-6 15-6 10 0 17 5 23 17l14 44 3 17c-20-8-34-18-45-28-10-10-15-20-15-30z" horiz-adv-x="2096" />

<glyph glyph-name="logo-my" unicode="&#xe85f;" d="M973 423c-38 46-72 133-76 193-3 60-55 114-114 120-60 6-145 43-190 83-45 40-119 42-166 4-46-38-133-72-193-76-60-3-114-55-120-114-6-60-43-145-83-190-40-45-42-119-4-166 38-46 72-133 76-193 3-60 55-114 114-120 60-6 145-43 190-83 45-40 119-42 166-4 46 38 133 72 193 76 60 3 114 55 120 114 6 60 43 145 83 190 40 45 42 119 4 166z m-237-217c-4-19-8-34-13-46-5-11-10-21-16-27-6-7-12-11-19-13-7-3-15-4-24-4-16 0-30 4-41 11-12 7-17 20-17 37 0 9 2 17 7 25 6 7 12 14 20 21 8 7 17 13 28 18 10 5 20 10 30 14l6 33c-8-10-18-18-27-22-10-5-20-8-29-8-8 0-15 2-23 6-7 3-13 8-18 14-5 6-10 13-13 22-1 3-1 7-2 10-1-2-3-4-4-6-9-14-17-23-25-30-8-6-15-11-22-13-7-2-13-3-18-3-19 0-32 6-40 18-7 11-11 25-11 42 0 12 1 24 4 37 2 13 5 25 9 38 3 12 6 24 8 35 3 12 4 22 4 32 0 9-1 16-5 21-3 5-9 8-18 8-11 0-21-5-29-14-8-9-16-23-25-43l-36-170h-54l38 177c1 5 2 9 2 13 0 4 1 7 1 10 0 10-2 17-6 21-4 4-9 6-16 6-11 0-21-5-29-14-8-9-16-24-25-43l-36-170h-53l56 265h54l-8-34c12 16 24 26 36 30 11 4 21 6 30 6 17 0 30-4 38-12 9-9 14-20 15-32 7 10 13 17 20 23 6 6 13 11 19 14 6 3 12 5 17 6 6 1 11 1 16 1 10 0 19-1 26-5 7-3 13-7 17-13 5-5 7-11 9-19 2-7 2-15 2-23 0-11-1-23-4-36-2-13-5-25-8-38-3-12-6-24-9-36-3-12-4-24-4-34 0-8 1-14 3-19 2-5 7-7 13-7 16 0 32 18 49 56 0 0 0 1 0 2l36 170h54l-39-181c-1-5-2-11-2-17 0-10 2-18 7-23 4-5 10-7 17-7 10 0 20 5 31 15 11 10 18 24 22 43l36 170h53l-65-308z m-95-12c11 10 25 20 45 28l-3-17-14-44c-6-12-13-17-23-17-6 0-11 2-15 6-3 4-5 8-5 14 0 10 5 20 15 30z" horiz-adv-x="1000" />

<glyph glyph-name="minus-circ-thin" unicode="&#xe860;" d="M854 704c-196 195-512 195-707 0-196-196-196-512 0-708 195-195 511-195 707 0 195 196 195 512 0 708z m-45-663c-170-171-448-172-619-1-171 171-170 449 1 619 170 171 448 171 618 0 171-170 171-448 0-618z m-90 278l-188 0-250 0c-17 0-31 14-31 31 0 17 14 31 31 31l250 0 188 0c17 0 31-14 31-31 0-17-14-31-31-31z m31 31c0-17-14-31-31-31l-188 0-250 0c-17 0-31 14-31 31 0 17 14 31 31 31l250 0 188 0c17 0 31-14 31-31z" horiz-adv-x="1000" />

<glyph glyph-name="pencil-circ-mark" unicode="&#xe861;" d="M758 520c0-19-10-41-29-64-19-19-305-302-318-315 0 0-4-3-7-3-19-7-138-45-138-45-3 0-3 0-6 0s-10 3-13 6-7 10-3 16c0 0 35 113 45 142 0 3 0 3 3 6 0 0 308 309 318 318 6 7 29 26 61 26 19 0 39-9 58-26 19-19 29-38 29-61z" horiz-adv-x="1000" />

<glyph glyph-name="plus-circ-thin" unicode="&#xe862;" d="M854 704c-196 195-512 195-707 0-196-196-196-512 0-708 195-195 511-195 707 0 195 196 195 512 0 708z m-45-663c-170-171-448-172-619-1-171 171-170 449 1 619 170 171 448 171 618 0 171-170 171-448 0-618z m-90 278l-188 0 0-188c0-17-14-31-31-31-17 0-31 14-31 31l0 188-188 0c-17 0-31 14-31 31 0 17 14 31 31 31l188 0 0 188c0 17 14 31 31 31 17 0 31-14 31-31l0-188 188 0c17 0 31-14 31-31 0-17-14-31-31-31z m31 31c0-17-14-31-31-31l-188 0 0-188c0-17-14-31-31-31-17 0-31 14-31 31l0 188-188 0c-17 0-31 14-31 31 0 17 14 31 31 31l188 0 0 188c0 17 14 31 31 31 17 0 31-14 31-31l0-188 188 0c17 0 31-14 31-31z" horiz-adv-x="1000" />

<glyph glyph-name="info-serif-circ-thin" unicode="&#xe863;" d="M500 850c-276 0-500-224-500-500s224-500 500-500c276 0 500 224 500 500s-224 500-500 500z m0-947c-246 0-447 201-447 447 0 247 201 447 447 447 247 0 447-200 447-447 0-246-200-447-447-447z m-35 732h70v-72h-70v72z m131-570h-192v46l61 10v283l-61 10v47h131v-340l61-10v-46z" horiz-adv-x="1000" />

<glyph glyph-name="magnify-thin" unicode="&#xe864;" d="M988-81l-204 205c64 76 102 175 102 283 0 245-198 443-443 443s-443-198-443-443c0-245 198-443 443-443 108 0 207 39 284 103l204-205c16-16 42-16 57 0 16 15 16 41 0 57z m-545 126c-200 0-362 162-362 362 0 200 162 362 362 362s363-162 363-362c0-200-163-362-363-362z" horiz-adv-x="1000" />

<glyph glyph-name="rate-circ" unicode="&#xe865;" d="M500 850c-276 0-500-224-500-500s224-500 500-500 500 224 500 500-224 500-500 500z m0-938c-242 0-437 196-437 438s195 438 437 438 438-196 438-438-196-438-438-438z m339 576l-209 30-121 244-120-244-269-39 194-190-46-268 241 126 241-126-46 268 195 190-60 9z m-167-189l38-223-201 105v513l101-204 224-32-162-159z" horiz-adv-x="1000" />

<glyph glyph-name="pencil-write-circ-mask" unicode="&#xe866;" d="M510 200c-17-5-48-15-72-25l72 25z m186 293c-51-52-165-165-215-213 11-5 24-13 35-24 12-12 17-21 22-30 48 47 161 160 213 210-1 6-6 22-19 35-14 13-27 19-36 22z m105 50l0 0c-18 15-34 23-50 23-30 0-50-19-54-23l-261-261c-3-3-4-4-4-8-8-24-36-114-36-115-4-6-1-14 3-18 3-3 10-7 14-7h6l1 1c0 0 95 31 113 36 3 1 6 4 7 4 5 5 59 59 117 116 65 65 136 135 145 143 16 19 24 38 24 56 0 19-8 36-25 53z" horiz-adv-x="1000" />

<glyph glyph-name="pencil-write-circ" unicode="&#xe867;" d="M801 543l0 0c-18 15-34 23-50 23-30 0-50-19-54-23l-261-261c-3-3-4-4-4-8-8-24-36-114-36-115-4-6-1-14 3-18 3-3 10-7 14-7h6l1 1c0 0 95 31 113 36 3 1 6 4 7 4 5 5 59 59 117 116 65 65 136 135 145 143 16 19 24 38 24 56 0 19-8 36-25 53z m-363-368c4 12 8 25 11 37 5 14 9 27 12 37 8-3 18-9 30-20 9-11 16-20 19-29l-72-25z m100 51c-5 9-10 18-22 30-11 11-24 19-35 24 50 48 164 161 215 213 9-3 22-9 36-22 13-13 18-29 19-35-52-50-165-163-213-210z m242 239c-2 2-4 5-6 9-5 6-10 14-18 22-9 9-20 17-32 24 4 3 14 10 27 10 9 0 16-5 26-12 9-9 14-19 14-28 0-8-4-17-11-25z m-408-117h-187c-9 0-17-8-17-17 0-9 8-17 17-17h187c9 0 17 8 17 17 0 9-8 17-17 17z m-34-140h-153c-9 0-17-7-17-16 0-10 8-17 17-17h153c9 0 17 7 17 17 0 9-8 16-17 16z m-153 246h318c9 0 16 7 16 16 0 10-7 17-16 17h-318c-9 0-17-7-17-17 0-9 8-16 17-16z m315 396c-276 0-500-224-500-500s224-500 500-500 500 224 500 500-224 500-500 500z m0-938c-242 0-437 196-437 438s195 438 437 438 438-196 438-438-196-438-438-438z" horiz-adv-x="1000" />

<glyph glyph-name="rate-circ-mask" unicode="&#xe868;" d="M855 436l-151-147 36-208 10-60-54 28-187 98-187-98-54-28 11 60 35 208-151 147-43 43 60 9 209 30 93 189 27 55 27-55 94-189 209-30 60-9-44-43z" horiz-adv-x="1000" />

<glyph glyph-name="logo-my-recipes" unicode="&#xe869;" d="M1350 568l-27-125h5c45 0 77 52 77 94 0 1 0 2 0 4 0 29-24 53-54 53-2 0-4 0-7 0-87 0-145-50-145-132 0-1 0-2 0-3 0-12 3-24 8-34-38 1-58 14-58 53 0 72 100 140 189 140 85 0 123-42 123-86-2-39-25-74-58-92 21-6 37-26 37-49 0-2 0-4-1-6 0-44-26-103-26-136 0-1 0-2 0-3 0-14 8-27 21-33-12-4-32-8-53-9-35 0-43 18-43 36 0 36 28 100 28 142 0 22-8 37-32 37-6 0-12-1-18-2l-42-204h-78l73 343z m228-316c26 0 72 32 91 72h24c-31-56-83-111-152-111-52 0-80 40-80 86 0 69 29 189 127 189 44 0 69-18 69-56 0-66-71-104-122-110-1-6-1-15-1-23-1-2-1-3-1-5 0-23 19-42 42-42 1 0 2 0 3 0z m28 208c-30 0-55-61-66-112 46 0 83 36 86 82 0 11-4 30-20 30z m226-15c0 1 1 1 1 2 0 9-8 17-18 17-1 0-2 0-3 0-45 0-74-88-74-147 0-31 6-57 40-57 36 1 71 21 94 50l18 0c-26-29-55-96-150-96-45 0-74 25-74 88 0 79 34 183 138 183 30 0 60-7 60-37 0 0 0 0 0 0 0-6-1-12-2-18-4 2-8 4-13 4 0 0 0 0-1 0-1-4-5-6-9-6-5 0-10 4-10 10 0 3 1 5 3 7z m147 39l-39-184c-1-2-2-9-2-17 0-12 5-20 27-20s49 30 71 48h18c-24-25-85-97-128-97s-67 18-67 59c0 9 1 19 3 28l39 183h78z m-25 114c24 0 43-19 43-43 0-24-19-43-43-43 0 0 0 0 0 0 0 0 0 0 0 0-24 0-43 19-43 43 0 0 0 0 0 0 0 0 0 0 0 0 0 24 20 43 43 43z m169-114l-2-11c11 6 24 10 38 10 56 0 83-20 83-75 0-12-2-26-4-40-16-114-63-154-118-154-18 1-36 7-51 17l-28-133-81-20 86 406h78z m46-120c3 11 7 32 7 54 0 33-13 39-30 39-11 0-22-4-31-11l-39-182c9-6 20-10 32-10 1 0 2 0 4 0 27 0 40 23 57 109z m196-112c20 0 39 15 55 40 2 38 20 59 41 60 1-8 25 54 38 121l78 19v-7c0-89 40-115 40-179 0-50-31-94-104-94-53 0-82 13-91 48-20-29-54-48-92-48 0 0-1 0-2 0-52 0-80 40-80 86 0 69 29 189 127 189 45 0 70-18 70-56 0-66-71-104-122-110-1-6-2-15-2-23 0-1 0-3 0-4 0-23 19-42 41-42 1 0 2 0 3 0z m28 208c-30 0-55-61-67-112 46 1 83 37 86 81 0 12-3 31-19 31z m74-173c0 0 0 0 0 0-8 0-14 1-20 5 0-2-1-5-1-7 0-22 18-40 40-40 3 0 5 0 7 1 18 0 44 22 44 64 0 33-24 62-25 129-9-26-16-61-28-88 11-3 18-13 18-25 0-2 0-3 0-5 0-19-16-35-35-35 0 0-1 0-1 0z m-1494 136c-34 38-67 111-75 191-6 64-53 114-114 122-53 2-130 34-192 84-22 19-52 30-84 30-31 0-59-10-81-27-38-33-111-66-191-75-64-5-114-53-122-114-2-53-34-130-84-191-19-23-30-52-30-85 0-30 10-58 27-81 34-38 66-111 75-191 5-63 53-113 114-122 53-2 130-34 191-84 22-19 52-30 85-30 30 0 58 10 81 27 38 34 111 66 191 75 63 5 113 53 122 115 2 52 34 129 84 191 18 22 30 52 30 84 0 31-10 59-28 81z m-168 90l-66-307c3 6-3-22-13-49 2 3-5-13-16-26-1-3-10-11-20-14-7-3-16-4-24-4-1 0-1 0-1 0-1 0-2 0-3 0-15 0-29 4-41 11-11 8-18 21-18 36 0 2 0 3 0 4 0 0 0 0 0 0 0 10 3 19 8 27-6-6 6 10 20 22-14-11 5 6 27 18-39-22-7-1 27 13l6 21c5 3-6-8-19-14-9-5-19-8-30-8-18 0-34 8-45 20-1 0-9 11-13 23l0 3c6 6-7-14-25-30 0-1-11-9-23-13-6-2-13-3-21-3-1 0-2 0-4 0-15 0-29 7-38 19-7 12-12 26-12 42 0 1 0 1 0 2 0 13 2 26 4 39 3 11 6 24 9 36s6 24 9 36c2 8 3 19 3 31 1 0 1 1 1 2 0 7-2 13-5 18-3 4-8 6-13 6-1 0-1 0-2 0 0 0 0 0 0 0-11 0-20-5-26-13 4 9-13-14-24-41l-37-174h-60l38 182c0-3 1 4 2 12 0 4 0 8 0 11 0 1 0 2 0 3 0 5-1 11-5 15-3 3-7 5-12 5 0 0-1 0-1 0 0 0 0 0 0 0-11 0-20-5-26-13 5 10-12-14-24-41l-37-174h-60v5l57 267h60l-6-24c1 3 13 14 28 20 8 4 19 6 31 7 2 0 3 0 5 0 14 0 27-5 37-14 3-2 10-13 14-25-8-10 2 5 15 17-7-5 5 6 19 14 2 1 10 5 19 6 5 1 11 2 16 2 11 0 20-2 29-5 2 0 11-6 18-14 2-2 7-10 9-20 2-7 3-15 3-23 0 0 0-1 0-1 0-13-2-26-4-38-3-12-6-25-9-37s-6-25-9-36c-2-10-3-21-4-33 0-1 0-2 0-2 0-6 1-11 3-16 2-3 5-5 8-5 1 0 1 0 2 0 14 0 30 18 45 54v1l37 173h60l-40-185c-1-4-2-10-2-16 0 0 0 0 0 0 0-1 0-2 0-2 0-7 2-13 6-18 3-4 8-7 14-7 0 0 0 0 0 0 11 1 22 6 29 15 8 6 17 22 20 39l37 173h60z m-175-349c0 0 0 0 0 0 0-5 1-9 4-12 3-3 7-5 11-5 0 0 1 0 1 0 9 1 17 7 20 15-1-6 8 18 13 43l0 1 3 10c1 3-21-8-38-24-7-6-13-16-14-27z" horiz-adv-x="2617" />

<glyph glyph-name="logo-my-loft" unicode="&#xe86a;" d="M1277 224c56-12 112-69 182-69 0 0 1 0 1 0 16 0 31 3 45 9-6-52-28-85-57-85-77 0-145 122-240 122-2 0-4 0-6 0s-5 0-7 0l80 374c-44-18-75-61-75-111 0-2 0-4 0-6 0-1 0-3 0-4 0-12 3-23 8-33-38 0-58 13-58 52 0 72 100 140 189 140 8 0 15 0 22-1z m284 186c4-3 9-5 14-5 0 0 1 0 2 0 25 0 37 19 57 27l2-12c-10-16-40-38-75-47-12-109-71-162-124-162-58 0-83 24-83 88 0 133 67 190 142 190 51 0 64-40 65-79z m-41-43c0 0-1 0-1 0-12 0-22 10-22 22 0 1 0 2 0 3 0 0 0 0 0 1 0 16 10 30 24 36-2 18-8 28-23 28-50 0-72-110-72-153 0-32 15-41 36-41 33 0 51 52 58 104z m292-67c-2-4-3-11-3-17 0-12 6-20 27-20s50 30 71 47h19c-25-25-86-96-128-96s-67 18-67 58c0 9 1 19 3 29l35 161h-66l-62-292c-16-77-62-92-98-92-1 0-2 0-4 0-32 0-59 26-60 59 0 49 42 65 94 80l64 308c17 77 64 92 99 92 48 0 87-18 135-38l-20-97h46l-5-21h-46z m-281-173c10 0 25 10 31 42l7 31c-34-11-60-26-60-55 2-11 11-18 21-18 0 0 1 0 1 0z m261 448c-7 4-21 8-36 9-12 0-30-6-37-43l-12-57h66z m-819-152c-34 38-67 111-75 191-6 64-53 114-114 122-53 2-130 34-192 84-22 19-52 30-84 30-31 0-59-10-81-27-38-33-111-66-191-75-64-5-114-53-122-114-2-53-34-130-84-191-19-23-30-52-30-85 0-30 10-58 27-81 34-38 66-111 75-191 5-63 53-113 114-122 53-2 130-34 191-84 22-19 52-30 85-30 30 0 58 10 81 27 38 34 111 66 191 75 63 5 113 53 122 115 2 52 34 129 84 191 18 22 30 52 30 84 0 31-10 59-28 81z m-168 90l-66-307c3 6-3-22-13-49 2 3-5-13-16-26-1-3-10-11-20-14-7-3-16-4-24-4-1 0-1 0-1 0-1 0-2 0-3 0-15 0-29 4-41 11-11 8-18 21-18 36 0 2 0 3 0 4 0 0 0 0 0 0 0 10 3 19 8 27-6-6 6 10 20 22-14-11 5 6 27 18-39-22-7-1 27 13l6 21c5 3-6-8-19-14-9-5-19-8-30-8-18 0-34 8-45 20-1 0-9 11-13 23l0 3c6 6-7-14-25-30 0-1-11-9-23-13-6-2-13-3-21-3-1 0-2 0-4 0-15 0-29 7-38 19-7 12-12 26-12 42 0 1 0 1 0 2 0 13 2 26 4 39 3 11 6 24 9 36s6 24 9 36c2 8 3 19 3 31 1 0 1 1 1 2 0 7-2 13-5 18-3 4-8 6-13 6-1 0-1 0-2 0 0 0 0 0 0 0-11 0-20-5-26-13 4 9-13-14-24-41l-37-174h-60l38 182c0-3 1 4 2 12 0 4 0 8 0 11 0 1 0 2 0 3 0 5-1 11-5 15-3 3-7 5-12 5 0 0-1 0-1 0 0 0 0 0 0 0-11 0-20-5-26-13 5 10-12-14-24-41l-37-174h-60v5l57 267h60l-6-24c1 3 13 14 28 20 8 4 19 6 31 7 2 0 3 0 5 0 14 0 27-5 37-14 3-2 10-13 14-25-8-10 2 5 15 17-7-5 5 6 19 14 2 1 10 5 19 6 5 1 11 2 16 2 11 0 20-2 29-5 2 0 11-6 18-14 2-2 7-10 9-20 2-7 3-15 3-23 0 0 0-1 0-1 0-13-2-26-4-38-3-12-6-25-9-37s-6-25-9-36c-2-10-3-21-4-33 0-1 0-2 0-2 0-6 1-11 3-16 2-3 5-5 8-5 1 0 1 0 2 0 14 0 30 18 45 54v1l37 173h60l-40-185c-1-4-2-10-2-16 0 0 0 0 0 0 0-1 0-2 0-2 0-7 2-13 6-18 3-4 8-7 14-7 0 0 0 0 0 0 11 1 22 6 29 15 8 6 17 22 20 39l37 173h60z m-175-349c0 0 0 0 0 0 0-5 1-9 4-12 3-3 7-5 11-5 0 0 1 0 1 0 9 1 17 7 20 15-1-6 8 18 13 43l0 1 3 10c1 3-21-8-38-24-7-6-13-16-14-27z" horiz-adv-x="1926" />

<glyph glyph-name="logo-my-dogs" unicode="&#xe86b;" d="M1350 568l-64-303c8-7 19-11 31-11 64 0 103 130 103 234 0 67-12 106-74 106-88 0-146-50-146-132 0-1 0-2 0-3 0-12 3-24 8-34-38 1-58 14-58 53 0 72 100 140 189 140 125 0 156-70 156-146 0-140-70-266-150-266-24 1-48 11-66 29l-4-22h-78l73 343z m358-158c3-3 8-5 13-5 1 0 2 0 2 0 26 0 37 19 57 27l2-12c-10-16-40-38-75-47-11-109-70-162-124-162-58 0-83 24-83 88 0 133 68 190 142 190 52 0 64-40 66-79z m-42-43c0 0 0 0-1 0-12 0-22 10-22 22 0 1 0 1 0 2 0 0 0 1 0 1 0 17 10 30 24 37-1 18-7 28-22 28-51 0-73-110-73-154 0-32 15-41 36-41 33 1 52 53 58 105z m322 116l-51-240c27 8 63 40 83 82l-2-42c-7-35-45-55-87-70l-10-43c-16-77-61-92-97-92s-60 17-60 53c0 44 40 62 88 80l6 24c-16-15-38-25-62-26-52 0-67 44-67 75 0 75 28 199 133 199 0 0 0 0 1 0 18 0 34-11 42-25l6 25h77z m-176-362c11 0 25 16 31 48l3 16c-30-12-53-26-53-47 1-9 9-17 19-17 0 0 0 0 0 0z m-17 174c0-26 15-34 40-34 11 1 24 8 32 19l32 149c-5 12-17 22-31 24-53 0-73-111-73-158z m367 198v-7c0-89 40-115 40-179 0-50-32-94-105-94-62 0-92 18-92 71 0 43 20 68 41 69 0-8 25 54 38 121z m-111-207c0 0 0 0 0 0-7 0-14 2-20 5 0-2 0-4 0-6 0-22 18-40 40-40 2 0 4 0 6 0 18 0 45 23 45 65 0 33-24 62-26 129-8-26-16-61-28-88 11-4 19-14 19-25 0-2 0-4-1-5 0-19-16-35-35-35 0 0 0 0 0 0z m-1078 137c-34 38-67 111-75 191-6 64-53 114-114 122-53 2-130 34-192 84-22 19-52 30-84 30-31 0-59-10-81-27-38-33-111-66-191-75-64-5-114-53-122-114-2-53-34-130-84-191-19-23-30-52-30-85 0-30 10-58 27-81 34-38 66-111 75-191 5-63 53-113 114-122 53-2 130-34 191-84 22-19 52-30 85-30 30 0 58 10 81 27 38 34 111 66 191 75 63 5 113 53 122 115 2 52 34 129 84 191 18 22 30 52 30 84 0 31-10 59-28 81z m-168 90l-66-307c3 6-3-22-13-49 2 3-5-13-16-26-1-3-10-11-20-14-7-3-16-4-24-4-1 0-1 0-1 0-1 0-2 0-3 0-15 0-29 4-41 11-11 8-18 21-18 36 0 2 0 3 0 4 0 0 0 0 0 0 0 10 3 19 8 27-6-6 6 10 20 22-14-11 5 6 27 18-39-22-7-1 27 13l6 21c5 3-6-8-19-14-9-5-19-8-30-8-18 0-34 8-45 20-1 0-9 11-13 23l0 3c6 6-7-14-25-30 0-1-11-9-23-13-6-2-13-3-21-3-1 0-2 0-4 0-15 0-29 7-38 19-7 12-12 26-12 42 0 1 0 1 0 2 0 13 2 26 4 39 3 11 6 24 9 36s6 24 9 36c2 8 3 19 3 31 1 0 1 1 1 2 0 7-2 13-5 18-3 4-8 6-13 6-1 0-1 0-2 0 0 0 0 0 0 0-11 0-20-5-26-13 4 9-13-14-24-41l-37-174h-60l38 182c0-3 1 4 2 12 0 4 0 8 0 11 0 1 0 2 0 3 0 5-1 11-5 15-3 3-7 5-12 5 0 0-1 0-1 0 0 0 0 0 0 0-11 0-20-5-26-13 5 10-12-14-24-41l-37-174h-60v5l57 267h60l-6-24c1 3 13 14 28 20 8 4 19 6 31 7 2 0 3 0 5 0 14 0 27-5 37-14 3-2 10-13 14-25-8-10 2 5 15 17-7-5 5 6 19 14 2 1 10 5 19 6 5 1 11 2 16 2 11 0 20-2 29-5 2 0 11-6 18-14 2-2 7-10 9-20 2-7 3-15 3-23 0 0 0-1 0-1 0-13-2-26-4-38-3-12-6-25-9-37s-6-25-9-36c-2-10-3-21-4-33 0-1 0-2 0-2 0-6 1-11 3-16 2-3 5-5 8-5 1 0 1 0 2 0 14 0 30 18 45 54v1l37 173h60l-40-185c-1-4-2-10-2-16 0 0 0 0 0 0 0-1 0-2 0-2 0-7 2-13 6-18 3-4 8-7 14-7 0 0 0 0 0 0 11 1 22 6 29 15 8 6 17 22 20 39l37 173h60z m-175-349c0 0 0 0 0 0 0-5 1-9 4-12 3-3 7-5 11-5 0 0 1 0 1 0 9 1 17 7 20 15-1-6 8 18 13 43l0 1 3 10c1 3-21-8-38-24-7-6-13-16-14-27z" horiz-adv-x="2201" />

<glyph glyph-name="feed-twitter-filled" unicode="&#xe86c;" d="M1000 666c-35-18-76-30-117-35 41 23 76 64 94 116-41-23-82-41-129-52-35 41-93 64-151 64-117 0-205-94-205-205 0-17 0-29 6-47-170 6-322 94-427 217-18-29-30-65-30-105 0-71 36-135 94-170-35 0-64 12-94 24v0c0-100 71-182 164-205-17-6-35-6-53-6-11 0-23 0-41 6 30-82 105-140 193-146-70-53-157-88-257-88-18 0-35 0-47 0 94-59 199-94 316-94 380 0 590 316 590 591 0 12 0 17 0 29 35 30 71 65 94 106z" horiz-adv-x="1000" />

<glyph glyph-name="mail-send" unicode="&#xe86d;" d="M438 186l385-137 177 779-562-642z m-124 40l686 597-1000-491 314-106z m124-106v-248l181 182-181 66z" horiz-adv-x="1000" />

<glyph glyph-name="logo-my-cats" unicode="&#xe86e;" d="M1434 311c-7-16-16-30-27-42s-24-22-37-31c-14-8-28-14-44-19s-32-6-48-6c-34 0-61 11-79 31s-28 53-28 98c0 16 1 33 3 53s7 40 13 60c6 20 14 40 24 59 9 19 21 37 35 52s29 27 47 36c18 9 40 14 63 14 12 0 23-2 34-4s19-7 27-12c7-6 13-13 18-22s7-21 7-34c0-13-3-24-8-33s-16-14-29-14c-4 0-8 1-12 3s-7 4-10 7c5 3 10 9 16 19s7 22 7 35c0 12-4 21-10 27s-17 9-29 9c-15 0-27-4-39-12-12-7-23-17-32-30s-19-27-26-44c-8-17-14-34-19-52-5-19-9-37-12-57-3-19-4-37-4-55 0-12 1-25 2-36s6-21 12-30c6-9 14-16 25-22s25-7 43-7c24 0 45 5 61 15 17 11 32 27 46 48l10-4z m216 174l-38-179c-2-7-3-15-3-24 0-6 1-11 3-16 3-5 7-8 13-8 9 0 17 5 26 15 8 10 17 24 24 42h20c-8-22-17-40-25-52s-17-23-24-30-15-11-23-13c-7-2-14-3-19-3-11 0-21 4-29 12s-12 21-13 40c-9-15-19-27-34-37s-29-15-46-15c-8 0-17 2-25 5s-15 7-21 14c-6 7-12 16-15 27s-6 23-6 39c0 12 1 25 3 39s6 27 12 41c4 13 11 26 19 39s16 23 26 33c10 10 21 18 34 24s25 8 40 8c9 0 17-2 26-6s15-11 18-22l5 25h52l0 2z m-147-226c6 0 12 1 18 4s11 7 17 12c5 6 11 12 14 19 5 6 7 14 10 22l25 119c-1 6-4 12-8 16-5 5-11 7-18 7-15 0-27-5-39-16s-20-23-28-39c-7-15-14-31-17-48s-6-33-6-45c0-20 3-34 9-41 5-6 13-10 23-10h0z m190 226h18l16 72 54 8-17-80h40l-4-19h-41l-34-160c0-3-1-6-2-10s-1-8-1-12c0-6 1-12 3-17 3-5 9-8 16-8 9 0 19 6 30 16 10 9 20 24 28 41h20c-10-19-19-35-28-47s-18-23-26-31-17-12-25-15c-7-3-15-4-21-4-10 0-18 1-24 5-6 3-11 7-15 13s-6 11-8 19c-1 7-2 14-2 22 0 6 1 13 2 20s2 13 3 18l31 150h-17l4 19z m238 16c1-34 4-61 5-82s3-38 5-52c1-14 2-24 3-32s0-17 0-26-3-32-8-43c-5-12-12-22-20-28s-18-13-28-16c-10-3-19-4-28-4-13 0-25 2-34 6-10 4-17 9-24 15s-11 14-14 21c-3 9-4 16-4 24 0 13 3 23 8 32 6 8 12 14 19 18 14 26 27 52 37 78s19 51 27 77l56 12z m-43-192c0 7 0 14 0 20s-2 15-3 24c-1 9-2 21-4 35s-3 33-4 56c-5-19-11-38-18-56-6-18-15-36-24-55 2-2 4-4 6-7s2-6 2-10c0-9-2-16-7-20s-10-7-14-7c-6 0-10 2-13 8 0-13 3-22 8-29s14-11 26-11c13 0 24 4 32 12 9 8 13 22 13 40v0z m-912 113c-37 47-72 134-75 194-3 60-55 113-114 119-60 7-145 44-190 84s-119 42-166 4c-46-38-133-72-193-75-60-4-113-56-120-115-6-60-44-145-83-189-40-45-42-119-4-166 38-47 72-134 75-194 4-59 56-113 115-119 60-7 145-44 189-84s120-42 166-4c46 38 134 72 194 75 59 4 113 56 119 115 6 60 44 145 84 189s41 120 3 166l0 0z m-237-216c-4-19-8-34-13-47-4-11-10-20-16-27s-12-10-19-13c-7-2-15-4-24-4-16 0-30 4-41 11-12 8-17 20-17 37 0 9 2 17 7 25 6 8 12 15 20 21s18 13 27 19c10 5 20 9 31 13l7 34c-10-11-19-18-28-23-10-5-19-7-29-7-8 0-15 2-22 5-7 3-13 9-18 15s-10 13-13 22c0 3-1 7-2 10-1-2-3-4-4-6-8-13-16-23-25-30-7-7-15-11-22-13s-12-3-18-3c-18 0-31 6-39 17-8 12-12 26-12 43 0 11 2 23 4 36s6 25 9 38c3 12 6 24 9 36 3 11 4 22 4 32 0 9-1 16-4 21s-9 8-19 8c-11 0-21-4-28-13s-16-24-25-44l-37-170h-54l38 176c1 6 2 10 3 13 0 4 0 8 0 11 0 10-2 17-6 20s-9 6-16 6c-11 0-21-4-28-14-8-9-16-23-25-42l-37-171h-53l56 265h54l-8-34c13 16 25 26 36 31s21 6 30 6c18 0 31-5 39-13s13-19 15-32c6 10 13 17 20 23s13 11 19 14c6 3 12 5 17 6s11 2 16 2c11 0 20-2 27-5s13-7 16-13c5-5 7-12 10-19 1-7 2-15 2-22 0-12-2-24-4-37s-5-25-9-38c-3-12-6-24-9-36-2-12-4-24-4-34 0-8 1-14 3-18 2-6 6-8 13-8 17 0 33 19 49 56 0 1 0 2 0 2l37 169h53l-38-180c-2-5-3-11-3-17 0-11 3-19 7-23 5-5 11-8 17-8 11 0 20 6 32 15s18 25 22 43l36 170h53l-69-307z m-109-42c0-6 2-11 5-15 3-4 9-6 15-6 10 0 17 5 23 16l13 45 4 17c-20-9-35-18-45-28-10-9-15-19-15-29l0 0z" horiz-adv-x="1945" />

<glyph glyph-name="logo-my-travel-italy" unicode="&#xe86f;" d="M1483 554c-12 0-26 1-40 4s-29 6-44 8l-74-344h-58l76 353c-4 0-7 0-9 1-3 0-7 0-10 0-18 0-33-1-47-5-14-3-25-9-35-17s-17-18-22-32c-6-12-7-29-7-50 0-14 1-23 3-29 2-7 4-11 7-15-7 0-14 1-20 2s-11 5-15 9c-4 4-7 10-10 16-3 7-4 16-4 27 0 16 3 33 10 48 7 17 16 31 32 43s33 23 57 31c23 8 51 11 84 11 14 0 26 0 38-1s22-3 31-5c10-1 20-2 30-4s19-1 30-1c15 0 28 1 38 3 11 2 19 4 26 8-2-21-7-36-18-47s-26-14-49-14l0 0z m27-69l-10-43c6 5 10 11 15 16s11 10 17 15c5 5 12 9 18 12s12 4 21 4c11 0 18-3 22-7s7-11 7-18c0-7-2-13-3-17-3-4-5-8-8-11s-7-4-10-6c-4-1-7-1-8-1-3 0-6 1-7 3s-3 3-4 4c-2 1-3 3-6 4s-5 3-8 3c-9 0-16-3-25-8-9-6-17-11-24-18l-41-195h-53l55 264h52l0-1z m319 0l-39-179c-2-7-3-16-3-24 0-5 1-11 3-17 3-5 7-6 12-6 9 0 17 5 25 15s17 23 25 41h20c-9-22-17-40-25-52s-17-23-25-29c-9-7-16-12-22-13s-14-3-20-3c-11 0-21 4-29 13-7 8-12 21-14 39-8-14-19-27-33-36s-29-16-47-16c-9 0-17 2-25 4s-16 9-22 16c-7 7-12 15-16 26s-5 24-5 39c0 12 1 25 4 39s7 27 11 41c6 14 11 27 19 39s17 24 27 33c9 10 21 18 33 24s26 8 40 8c9 0 17-1 27-5 8-4 15-11 18-22l5 25 56 0z m-147-226c5 0 11 1 18 4 5 2 11 7 16 12s10 11 14 18c4 7 7 14 9 22l24 120c-1 5-4 11-8 16-4 4-10 7-18 7-14 0-28-5-39-15-11-11-20-24-29-39s-14-32-18-48c-4-17-5-32-5-46 0-20 2-33 8-42 10-5 18-9 28-9v0z m363 191c0-15-1-31-4-49s-7-34-13-51c-5-17-12-33-19-48-8-16-17-31-26-42-10-13-21-22-32-29s-24-11-36-11c-20 0-36 5-47 15s-19 26-19 47c0 3 0 7 0 11s2 10 3 14l38 179h52l-37-179c-1-5-3-11-3-18 0-8 2-17 6-22s9-8 18-8c9 0 19 2 27 9s16 15 24 27c7 11 13 22 18 36s10 27 13 41 5 28 8 40c3 13 3 24 3 34-3-3-6-3-10-4-4 0-7 0-8 0-6 0-9 2-11 7s-5 9-5 15c0 7 3 14 7 21s11 9 20 9c11 0 19-4 26-11 4-8 7-19 7-33l0 0z m204-17c0-30-11-54-35-72s-55-29-95-33c0-3 0-6 0-8s0-6 0-9c0-18 2-30 9-39s18-12 36-12 34 4 50 12c17 9 32 24 46 45h17c-7-13-16-25-25-38-10-11-21-22-34-30s-25-17-38-21c-14-6-28-8-42-8-10 0-19 1-29 4s-18 8-25 15c-7 7-13 15-18 26-4 12-7 24-7 39 0 10 1 21 3 35 2 12 5 26 9 40s10 28 18 40c7 14 16 25 25 36 10 10 21 18 34 25s27 10 43 10c7 0 14-1 20-3s13-4 18-8c6-4 10-10 13-17 5-9 7-18 7-29l0 0z m-51 29c-10 0-20-2-28-9s-15-16-22-27c-7-11-13-23-17-36-4-14-8-27-11-40 29 4 53 15 71 31s26 36 26 59c0 6-1 11-3 17s-8 5-16 5l0 0z m172 128l-61-284c-2-4-2-9-2-11 0-5 0-7 0-12 0-6 2-13 4-18s7-6 14-6c3 0 6 0 8 0s6 1 10 2c-4-16-10-27-16-34-7-6-16-9-25-9-6 0-12 2-17 3s-11 6-15 10c-4 4-9 11-11 19s-5 18-5 29c0 10 2 23 5 36l56 267 55 8z m126-247h-106l9 38h105l-8-38z m161-121h-59l78 364c-15-4-28-10-40-17s-22-15-31-25-15-21-19-34c-4-13-7-27-7-42 0-13 1-21 4-26s6-10 8-14c-18 0-31 4-41 11s-15 19-15 37c0 18 5 36 16 53s25 32 43 44c18 13 38 24 60 31s44 11 65 11c4 0 7 0 11 0s7 0 11-1l-84-392z m87 263h18l15 72 54 7-18-81h41l-5-19h-41l-35-161c-1-3-1-7-3-11s-1-9-1-13c0-7 1-12 4-16s8-7 17-7c9 0 19 5 29 15s19 24 28 42h19c-10-20-18-35-28-49-9-12-18-22-26-30-8-7-17-13-25-16s-15-4-21-4c-10 0-18 2-23 6s-11 8-16 12c-4 6-7 11-8 20-1 7-3 13-3 22 0 7 0 14 2 21s2 12 2 18l32 149h-18l10 23v0z m337 0l-39-179c-1-7-3-16-3-24 0-5 2-11 3-17 3-5 7-6 13-6 8 0 16 5 25 15s16 23 25 41h19c-8-22-17-40-25-52s-17-23-25-29c-8-7-15-12-22-13s-14-3-20-3c-11 0-20 4-29 13-7 8-12 21-14 39-8-14-19-27-33-36s-29-16-47-16c-8 0-17 2-25 4s-15 9-22 16-11 15-15 26-6 24-6 39c0 12 1 25 4 39s7 27 11 41c6 14 11 27 20 39s16 24 26 33c10 10 21 18 33 24s27 8 41 8c8 0 16-1 26-5 8-4 15-11 18-22l6 25 55 0z m-147-226c6 0 11 1 18 4 6 2 11 7 17 12s9 11 14 18c4 7 6 14 8 22l25 120c-2 5-4 11-8 16-5 4-10 7-19 7-13 0-27-5-38-15-11-11-21-24-29-39s-14-32-19-48c-4-17-5-32-5-46 0-20 3-33 8-42 10-5 17-9 28-9v0z m283 331l-61-284c-1-7-3-16-3-24 0-5 2-11 3-17 3-5 7-6 12-6 9 0 17 5 25 15s17 23 25 41h20c-9-22-17-40-25-52s-17-23-25-29c-9-7-15-12-22-13s-14-3-20-3c-10 0-16 2-22 4s-11 7-14 13c-4 5-5 11-8 18s-3 15-3 22 0 13 1 20 2 12 3 19l57 266 57 10z m91-105l-38-179c-2-6-3-11-3-18 0-10 3-18 7-23 4-5 9-6 16-6 10 0 21 5 32 15s18 23 23 43l36 169h52l-65-305c-4-20-8-35-12-46s-10-21-16-28-12-11-19-12c-7-3-15-3-24-3-16 0-30 4-41 11s-17 20-17 36c0 9 3 17 8 25 6 7 12 15 20 21 8 7 16 12 28 18 9 6 19 10 29 14l7 33c-9-10-18-18-28-22s-20-7-28-7-15 1-22 6c-7 2-13 8-18 13s-10 14-13 23c-2 8-4 18-4 29 0 8 2 18 3 26l36 169h51l0-2z m-30-368c10 0 18 6 22 17 6 11 10 26 14 44l4 17c-19-9-35-18-44-28s-15-19-15-29c0-6 1-11 5-15 3-3 8-6 14-6h0z m-2305 307c-37 47-72 133-75 192-4 60-55 114-115 120s-146 43-190 83c-44 40-119 41-166 4s-134-72-193-75c-60-4-114-55-119-115s-43-146-84-190c-40-44-41-119-4-166s72-134 75-193c4-60 55-114 115-120s146-43 190-83c45-40 119-41 167-4s133 72 192 75c60 4 114 55 120 115s43 146 83 190c41 45 43 119 4 167v0z m-236-218c-4-20-8-35-12-46s-10-21-16-28c-5-7-12-11-19-14s-15-2-24-2-30 4-41 11c-11 7-17 19-17 37 0 9 3 17 9 25 5 7 11 15 19 21 8 7 17 12 28 18s19 10 30 14l7 33c-8-10-18-18-28-22s-19-7-27-7-16 1-23 6c-6 2-13 8-18 13-5 6-9 14-12 23-1 2-1 7-3 11-1-3-3-4-4-7-8-13-17-24-25-29-8-7-15-11-22-13s-13-3-18-3c-18 0-32 6-39 17-8 11-11 26-11 43 0 11 1 24 4 36s6 25 8 38c3 12 6 25 9 36s4 22 4 31c0 9-1 16-4 21s-10 9-18 9c-11 0-21-5-29-14s-17-24-25-43l-36-171h-55l38 178c1 5 1 9 3 14 0 4 0 6 0 11 0 9-2 16-6 20s-10 6-15 6c-11 0-21-4-29-14s-17-23-25-43l-36-170h-53l57 264h54l-7-33c13 15 24 27 36 31 11 4 21 7 31 7 18 0 30-5 38-13s13-19 16-32c7 10 12 18 19 24s13 10 20 14c5 2 12 5 18 5 5 2 11 2 15 2 11 0 19-2 26-5s13-6 17-12c4-6 7-13 8-19s3-16 3-24c0-11-1-24-4-36s-6-25-9-38c-2-12-5-25-8-36-3-12-4-23-4-33 0-7 1-14 3-18 3-5 7-7 12-7 17 0 34 20 49 56v1l36 171h54l-39-181c-1-5-3-11-3-18 0-9 3-18 7-22 4-5 10-7 17-7 10 0 21 6 32 15s18 25 22 43l36 171h53l-74-316 0 0z m-111-42c0-5 2-11 6-15 3-4 8-6 15-6 10 0 18 6 22 17l14 44 4 17c-19-8-34-18-44-28s-17-19-17-29h0z" horiz-adv-x="3447" />

</font>
</defs>
</svg>
